M48
; DRILL file {KiCad (6.0.9)} date Sun Mar 17 00:13:14 2024
; FORMAT={-:-/ absolute / metric / decimal}
; #@! TF.CreationDate,2024-03-17T00:13:14-04:00
; #@! TF.GenerationSoftware,Kicad,Pcbnew,(6.0.9)
; #@! TF.FileFunction,Plated,1,2,PTH
FMAT,2
METRIC
; #@! TA.AperFunction,Plated,PTH,ComponentDrill
T1C0.700
%
G90
G05
T1
X5.842Y-16.002
X9.398Y-23.397
X9.398Y-28.397
X15.038Y-3.338
X15.038Y-7.838
X16.002Y-16.002
X21.336Y-16.002
X21.538Y-3.338
X21.538Y-7.838
X25.654Y-25.913
X25.654Y-28.453
X30.278Y-3.338
X30.278Y-7.838
X31.496Y-16.002
X33.068Y-22.762
X34.798Y-24.262
X36.568Y-22.762
X36.778Y-3.338
X36.778Y-7.838
X36.83Y-16.002
X40.942Y-22.762
X42.672Y-24.262
X44.442Y-22.762
X46.99Y-16.002
T0
M30
