%TF.GenerationSoftware,KiCad,Pcbnew,(6.0.9)*%
%TF.CreationDate,2024-03-03T13:04:41-05:00*%
%TF.ProjectId,nand-test,6e616e64-2d74-4657-9374-2e6b69636164,v01*%
%TF.SameCoordinates,PX4d83c00PY354a940*%
%TF.FileFunction,Copper,L2,Bot*%
%TF.FilePolarity,Positive*%
%FSLAX46Y46*%
G04 Gerber Fmt 4.6, Leading zero omitted, Abs format (unit mm)*
G04 Created by KiCad (PCBNEW (6.0.9)) date 2024-03-03 13:04:41*
%MOMM*%
%LPD*%
G01*
G04 APERTURE LIST*
%TA.AperFunction,ComponentPad*%
%ADD10R,1.050000X1.500000*%
%TD*%
%TA.AperFunction,ComponentPad*%
%ADD11O,1.050000X1.500000*%
%TD*%
%TA.AperFunction,ComponentPad*%
%ADD12R,1.800000X1.800000*%
%TD*%
%TA.AperFunction,ComponentPad*%
%ADD13C,1.800000*%
%TD*%
%TA.AperFunction,ComponentPad*%
%ADD14C,1.600000*%
%TD*%
%TA.AperFunction,ComponentPad*%
%ADD15O,1.600000X1.600000*%
%TD*%
%TA.AperFunction,ComponentPad*%
%ADD16C,2.000000*%
%TD*%
%TA.AperFunction,ComponentPad*%
%ADD17R,3.960000X1.980000*%
%TD*%
%TA.AperFunction,ComponentPad*%
%ADD18O,3.960000X1.980000*%
%TD*%
%TA.AperFunction,Conductor*%
%ADD19C,0.500000*%
%TD*%
G04 APERTURE END LIST*
D10*
%TO.P,Q2,1,E*%
%TO.N,GND*%
X45450000Y-22860000D03*
D11*
%TO.P,Q2,2,B*%
%TO.N,Net-(Q2-Pad2)*%
X43180000Y-22860000D03*
%TO.P,Q2,3,C*%
%TO.N,Net-(Q1-Pad1)*%
X40950000Y-22860000D03*
%TD*%
D12*
%TO.P,D1,1,K*%
%TO.N,GND*%
X24130000Y-27940000D03*
D13*
%TO.P,D1,2,A*%
%TO.N,Net-(D1-Pad2)*%
X24130000Y-25400000D03*
%TD*%
D14*
%TO.P,R3,1*%
%TO.N,+5V*%
X5080000Y-15240000D03*
D15*
%TO.P,R3,2*%
%TO.N,Net-(D1-Pad2)*%
X15240000Y-15240000D03*
%TD*%
D10*
%TO.P,Q1,1,E*%
%TO.N,Net-(Q1-Pad1)*%
X36560000Y-22860000D03*
D11*
%TO.P,Q1,2,B*%
%TO.N,Net-(Q1-Pad2)*%
X34290000Y-22860000D03*
%TO.P,Q1,3,C*%
%TO.N,Net-(D1-Pad2)*%
X32060000Y-22860000D03*
%TD*%
D16*
%TO.P,SW1,1,A*%
%TO.N,+5V*%
X21030000Y-4100000D03*
X14530000Y-4100000D03*
%TO.P,SW1,2,B*%
%TO.N,Net-(R1-Pad1)*%
X14530000Y-8600000D03*
X21030000Y-8600000D03*
%TD*%
D14*
%TO.P,R1,1*%
%TO.N,Net-(R1-Pad1)*%
X20320000Y-15240000D03*
D15*
%TO.P,R1,2*%
%TO.N,Net-(Q1-Pad2)*%
X30480000Y-15240000D03*
%TD*%
D16*
%TO.P,SW2,1,A*%
%TO.N,+5V*%
X29770000Y-4100000D03*
X36270000Y-4100000D03*
%TO.P,SW2,2,B*%
%TO.N,Net-(R2-Pad1)*%
X29770000Y-8600000D03*
X36270000Y-8600000D03*
%TD*%
D14*
%TO.P,R2,1*%
%TO.N,Net-(R2-Pad1)*%
X35560000Y-15240000D03*
D15*
%TO.P,R2,2*%
%TO.N,Net-(Q2-Pad2)*%
X45720000Y-15240000D03*
%TD*%
D17*
%TO.P,J1,1,Pin_1*%
%TO.N,+5V*%
X10160000Y-22860000D03*
D18*
%TO.P,J1,2,Pin_2*%
%TO.N,GND*%
X10160000Y-27860000D03*
%TD*%
D19*
%TO.N,GND*%
X24050000Y-27860000D02*
X24130000Y-27940000D01*
%TO.N,Net-(D1-Pad2)*%
X24130000Y-25400000D02*
X26670000Y-22860000D01*
X24130000Y-25400000D02*
X15240000Y-16510000D01*
X26670000Y-22860000D02*
X32060000Y-22860000D01*
X15240000Y-16510000D02*
X15240000Y-15240000D01*
%TO.N,+5V*%
X5080000Y-13550000D02*
X14530000Y-4100000D01*
X5080000Y-17780000D02*
X10160000Y-22860000D01*
X14530000Y-4100000D02*
X21030000Y-4100000D01*
X5080000Y-15240000D02*
X5080000Y-17780000D01*
X29770000Y-4100000D02*
X21030000Y-4100000D01*
X36270000Y-4100000D02*
X29770000Y-4100000D01*
X5080000Y-15240000D02*
X5080000Y-13550000D01*
%TO.N,Net-(Q1-Pad1)*%
X36560000Y-22860000D02*
X40950000Y-22860000D01*
%TO.N,Net-(Q1-Pad2)*%
X30480000Y-19050000D02*
X34290000Y-22860000D01*
X30480000Y-15240000D02*
X30480000Y-19050000D01*
%TO.N,Net-(Q2-Pad2)*%
X43180000Y-17780000D02*
X45720000Y-15240000D01*
X43180000Y-22860000D02*
X43180000Y-17780000D01*
%TO.N,Net-(R1-Pad1)*%
X21030000Y-14530000D02*
X20320000Y-15240000D01*
X14530000Y-8600000D02*
X21030000Y-8600000D01*
X21030000Y-8600000D02*
X21030000Y-14530000D01*
%TO.N,Net-(R2-Pad1)*%
X36270000Y-8600000D02*
X36270000Y-14530000D01*
X36270000Y-14530000D02*
X35560000Y-15240000D01*
X29770000Y-8600000D02*
X36270000Y-8600000D01*
%TD*%
%TA.AperFunction,Conductor*%
%TO.N,GND*%
G36*
X47693621Y-528502D02*
G01*
X47740114Y-582158D01*
X47751500Y-634500D01*
X47751500Y-32385500D01*
X47731498Y-32453621D01*
X47677842Y-32500114D01*
X47625500Y-32511500D01*
X634500Y-32511500D01*
X566379Y-32491498D01*
X519886Y-32437842D01*
X508500Y-32385500D01*
X508500Y-28132194D01*
X7696135Y-28132194D01*
X7707006Y-28203236D01*
X7709395Y-28213263D01*
X7782709Y-28437570D01*
X7786706Y-28447079D01*
X7895669Y-28656395D01*
X7901163Y-28665120D01*
X8042854Y-28853835D01*
X8049697Y-28861542D01*
X8220310Y-29024584D01*
X8228316Y-29031067D01*
X8423274Y-29164057D01*
X8432226Y-29169143D01*
X8646285Y-29268506D01*
X8655945Y-29272060D01*
X8883369Y-29335130D01*
X8893473Y-29337057D01*
X9086102Y-29357644D01*
X9092794Y-29358000D01*
X9887885Y-29358000D01*
X9903124Y-29353525D01*
X9904329Y-29352135D01*
X9906000Y-29344452D01*
X9906000Y-29339885D01*
X10414000Y-29339885D01*
X10418475Y-29355124D01*
X10419865Y-29356329D01*
X10427548Y-29358000D01*
X11209857Y-29358000D01*
X11215030Y-29357788D01*
X11390350Y-29343374D01*
X11400512Y-29341691D01*
X11629396Y-29284200D01*
X11639151Y-29280879D01*
X11855557Y-29186782D01*
X11864655Y-29181904D01*
X12062787Y-29053727D01*
X12070956Y-29047437D01*
X12245501Y-28888613D01*
X12249179Y-28884669D01*
X22722001Y-28884669D01*
X22722371Y-28891490D01*
X22727895Y-28942352D01*
X22731521Y-28957604D01*
X22776676Y-29078054D01*
X22785214Y-29093649D01*
X22861715Y-29195724D01*
X22874276Y-29208285D01*
X22976351Y-29284786D01*
X22991946Y-29293324D01*
X23112394Y-29338478D01*
X23127649Y-29342105D01*
X23178514Y-29347631D01*
X23185328Y-29348000D01*
X23857885Y-29348000D01*
X23873124Y-29343525D01*
X23874329Y-29342135D01*
X23876000Y-29334452D01*
X23876000Y-29329884D01*
X24384000Y-29329884D01*
X24388475Y-29345123D01*
X24389865Y-29346328D01*
X24397548Y-29347999D01*
X25074669Y-29347999D01*
X25081490Y-29347629D01*
X25132352Y-29342105D01*
X25147604Y-29338479D01*
X25268054Y-29293324D01*
X25283649Y-29284786D01*
X25385724Y-29208285D01*
X25398285Y-29195724D01*
X25474786Y-29093649D01*
X25483324Y-29078054D01*
X25528478Y-28957606D01*
X25532105Y-28942351D01*
X25537631Y-28891486D01*
X25538000Y-28884672D01*
X25538000Y-28212115D01*
X25533525Y-28196876D01*
X25532135Y-28195671D01*
X25524452Y-28194000D01*
X24402115Y-28194000D01*
X24386876Y-28198475D01*
X24385671Y-28199865D01*
X24384000Y-28207548D01*
X24384000Y-29329884D01*
X23876000Y-29329884D01*
X23876000Y-28212115D01*
X23871525Y-28196876D01*
X23870135Y-28195671D01*
X23862452Y-28194000D01*
X22740116Y-28194000D01*
X22724877Y-28198475D01*
X22723672Y-28199865D01*
X22722001Y-28207548D01*
X22722001Y-28884669D01*
X12249179Y-28884669D01*
X12252526Y-28881080D01*
X12398787Y-28695880D01*
X12404492Y-28687293D01*
X12518536Y-28480703D01*
X12522766Y-28471291D01*
X12601539Y-28248844D01*
X12604173Y-28238873D01*
X12623239Y-28131837D01*
X12621779Y-28118540D01*
X12607222Y-28114000D01*
X10432115Y-28114000D01*
X10416876Y-28118475D01*
X10415671Y-28119865D01*
X10414000Y-28127548D01*
X10414000Y-29339885D01*
X9906000Y-29339885D01*
X9906000Y-28132115D01*
X9901525Y-28116876D01*
X9900135Y-28115671D01*
X9892452Y-28114000D01*
X7711466Y-28114000D01*
X7698122Y-28117918D01*
X7696135Y-28132194D01*
X508500Y-28132194D01*
X508500Y-27588163D01*
X7696761Y-27588163D01*
X7698221Y-27601460D01*
X7712778Y-27606000D01*
X9887885Y-27606000D01*
X9903124Y-27601525D01*
X9904329Y-27600135D01*
X9906000Y-27592452D01*
X9906000Y-27587885D01*
X10414000Y-27587885D01*
X10418475Y-27603124D01*
X10419865Y-27604329D01*
X10427548Y-27606000D01*
X12608534Y-27606000D01*
X12621878Y-27602082D01*
X12623865Y-27587806D01*
X12612994Y-27516764D01*
X12610605Y-27506737D01*
X12537291Y-27282430D01*
X12533294Y-27272921D01*
X12424331Y-27063605D01*
X12418837Y-27054880D01*
X12277146Y-26866165D01*
X12270303Y-26858458D01*
X12099690Y-26695416D01*
X12091684Y-26688933D01*
X11896726Y-26555943D01*
X11887774Y-26550857D01*
X11673715Y-26451494D01*
X11664055Y-26447940D01*
X11436631Y-26384870D01*
X11426527Y-26382943D01*
X11233898Y-26362356D01*
X11227206Y-26362000D01*
X10432115Y-26362000D01*
X10416876Y-26366475D01*
X10415671Y-26367865D01*
X10414000Y-26375548D01*
X10414000Y-27587885D01*
X9906000Y-27587885D01*
X9906000Y-26380115D01*
X9901525Y-26364876D01*
X9900135Y-26363671D01*
X9892452Y-26362000D01*
X9110143Y-26362000D01*
X9104970Y-26362212D01*
X8929650Y-26376626D01*
X8919488Y-26378309D01*
X8690604Y-26435800D01*
X8680849Y-26439121D01*
X8464443Y-26533218D01*
X8455345Y-26538096D01*
X8257213Y-26666273D01*
X8249044Y-26672563D01*
X8074499Y-26831387D01*
X8067474Y-26838920D01*
X7921213Y-27024120D01*
X7915508Y-27032707D01*
X7801464Y-27239297D01*
X7797234Y-27248709D01*
X7718461Y-27471156D01*
X7715827Y-27481127D01*
X7696761Y-27588163D01*
X508500Y-27588163D01*
X508500Y-15240000D01*
X3766502Y-15240000D01*
X3786457Y-15468087D01*
X3845716Y-15689243D01*
X3848039Y-15694224D01*
X3848039Y-15694225D01*
X3940151Y-15891762D01*
X3940154Y-15891767D01*
X3942477Y-15896749D01*
X4073802Y-16084300D01*
X4235700Y-16246198D01*
X4267771Y-16268655D01*
X4312099Y-16324110D01*
X4321500Y-16371867D01*
X4321500Y-17712930D01*
X4320067Y-17731880D01*
X4316801Y-17753349D01*
X4317394Y-17760641D01*
X4317394Y-17760644D01*
X4321085Y-17806018D01*
X4321500Y-17816233D01*
X4321500Y-17824293D01*
X4321925Y-17827937D01*
X4324789Y-17852507D01*
X4325222Y-17856882D01*
X4331140Y-17929637D01*
X4333396Y-17936601D01*
X4334587Y-17942560D01*
X4335971Y-17948415D01*
X4336818Y-17955681D01*
X4361735Y-18024327D01*
X4363152Y-18028455D01*
X4379284Y-18078250D01*
X4385649Y-18097899D01*
X4389445Y-18104154D01*
X4391951Y-18109628D01*
X4394670Y-18115058D01*
X4397167Y-18121937D01*
X4401180Y-18128057D01*
X4401180Y-18128058D01*
X4437186Y-18182976D01*
X4439523Y-18186680D01*
X4477405Y-18249107D01*
X4481121Y-18253315D01*
X4481122Y-18253316D01*
X4484803Y-18257484D01*
X4484776Y-18257508D01*
X4487429Y-18260500D01*
X4490132Y-18263733D01*
X4494144Y-18269852D01*
X4499456Y-18274884D01*
X4550383Y-18323128D01*
X4552825Y-18325506D01*
X7706439Y-21479120D01*
X7740465Y-21541432D01*
X7735400Y-21612247D01*
X7731853Y-21620003D01*
X7729385Y-21623295D01*
X7678255Y-21759684D01*
X7671500Y-21821866D01*
X7671500Y-23898134D01*
X7678255Y-23960316D01*
X7729385Y-24096705D01*
X7816739Y-24213261D01*
X7933295Y-24300615D01*
X8069684Y-24351745D01*
X8131866Y-24358500D01*
X12188134Y-24358500D01*
X12250316Y-24351745D01*
X12386705Y-24300615D01*
X12503261Y-24213261D01*
X12590615Y-24096705D01*
X12641745Y-23960316D01*
X12648500Y-23898134D01*
X12648500Y-21821866D01*
X12641745Y-21759684D01*
X12590615Y-21623295D01*
X12503261Y-21506739D01*
X12386705Y-21419385D01*
X12250316Y-21368255D01*
X12188134Y-21361500D01*
X9786371Y-21361500D01*
X9718250Y-21341498D01*
X9697276Y-21324595D01*
X5875405Y-17502724D01*
X5841379Y-17440412D01*
X5838500Y-17413629D01*
X5838500Y-16371867D01*
X5858502Y-16303746D01*
X5892228Y-16268655D01*
X5924300Y-16246198D01*
X6086198Y-16084300D01*
X6217523Y-15896749D01*
X6219846Y-15891767D01*
X6219849Y-15891762D01*
X6311961Y-15694225D01*
X6311961Y-15694224D01*
X6314284Y-15689243D01*
X6373543Y-15468087D01*
X6393498Y-15240000D01*
X13926502Y-15240000D01*
X13946457Y-15468087D01*
X14005716Y-15689243D01*
X14008039Y-15694224D01*
X14008039Y-15694225D01*
X14100151Y-15891762D01*
X14100154Y-15891767D01*
X14102477Y-15896749D01*
X14233802Y-16084300D01*
X14395700Y-16246198D01*
X14427771Y-16268655D01*
X14472099Y-16324110D01*
X14481500Y-16371867D01*
X14481500Y-16442930D01*
X14480067Y-16461880D01*
X14477964Y-16475707D01*
X14476801Y-16483349D01*
X14477394Y-16490641D01*
X14477394Y-16490644D01*
X14481085Y-16536018D01*
X14481500Y-16546233D01*
X14481500Y-16554293D01*
X14481925Y-16557937D01*
X14484789Y-16582507D01*
X14485222Y-16586882D01*
X14491140Y-16659637D01*
X14493396Y-16666601D01*
X14494587Y-16672560D01*
X14495971Y-16678415D01*
X14496818Y-16685681D01*
X14521735Y-16754327D01*
X14523152Y-16758455D01*
X14545649Y-16827899D01*
X14549445Y-16834154D01*
X14551951Y-16839628D01*
X14554670Y-16845058D01*
X14557167Y-16851937D01*
X14561180Y-16858057D01*
X14561180Y-16858058D01*
X14597186Y-16912976D01*
X14599523Y-16916680D01*
X14637405Y-16979107D01*
X14641121Y-16983315D01*
X14641122Y-16983316D01*
X14644803Y-16987484D01*
X14644776Y-16987508D01*
X14647429Y-16990500D01*
X14650132Y-16993733D01*
X14654144Y-16999852D01*
X14659456Y-17004884D01*
X14710383Y-17053128D01*
X14712825Y-17055506D01*
X22704017Y-25046698D01*
X22738043Y-25109010D01*
X22740209Y-25149182D01*
X22737522Y-25174328D01*
X22717095Y-25365469D01*
X22717392Y-25370622D01*
X22717392Y-25370625D01*
X22723067Y-25469041D01*
X22730427Y-25596697D01*
X22731564Y-25601743D01*
X22731565Y-25601749D01*
X22763741Y-25744523D01*
X22781346Y-25822642D01*
X22783288Y-25827424D01*
X22783289Y-25827428D01*
X22866540Y-26032450D01*
X22868484Y-26037237D01*
X22989501Y-26234719D01*
X22992882Y-26238622D01*
X23101653Y-26364191D01*
X23131135Y-26428776D01*
X23121020Y-26499049D01*
X23074519Y-26552697D01*
X23050646Y-26564670D01*
X22991944Y-26586677D01*
X22976351Y-26595214D01*
X22874276Y-26671715D01*
X22861715Y-26684276D01*
X22785214Y-26786351D01*
X22776676Y-26801946D01*
X22731522Y-26922394D01*
X22727895Y-26937649D01*
X22722369Y-26988514D01*
X22722000Y-26995328D01*
X22722000Y-27667885D01*
X22726475Y-27683124D01*
X22727865Y-27684329D01*
X22735548Y-27686000D01*
X25519884Y-27686000D01*
X25535123Y-27681525D01*
X25536328Y-27680135D01*
X25537999Y-27672452D01*
X25537999Y-26995331D01*
X25537629Y-26988510D01*
X25532105Y-26937648D01*
X25528479Y-26922396D01*
X25483324Y-26801946D01*
X25474786Y-26786351D01*
X25398285Y-26684276D01*
X25385724Y-26671715D01*
X25283649Y-26595214D01*
X25268052Y-26586675D01*
X25209415Y-26564693D01*
X25152650Y-26522052D01*
X25127950Y-26455490D01*
X25143157Y-26386141D01*
X25164703Y-26357461D01*
X25202641Y-26319654D01*
X25206303Y-26316005D01*
X25341458Y-26127917D01*
X25388641Y-26032450D01*
X25441784Y-25924922D01*
X25441785Y-25924920D01*
X25444078Y-25920280D01*
X25511408Y-25698671D01*
X25541640Y-25469041D01*
X25543327Y-25400000D01*
X25524349Y-25169167D01*
X25523088Y-25164147D01*
X25522244Y-25159047D01*
X25523797Y-25158790D01*
X25526316Y-25094917D01*
X25556624Y-25046057D01*
X26947276Y-23655405D01*
X27009588Y-23621379D01*
X27036371Y-23618500D01*
X31101580Y-23618500D01*
X31169701Y-23638502D01*
X31199223Y-23664864D01*
X31323110Y-23816763D01*
X31327857Y-23820690D01*
X31327859Y-23820692D01*
X31474528Y-23942027D01*
X31474531Y-23942029D01*
X31479278Y-23945956D01*
X31657565Y-24042356D01*
X31726733Y-24063767D01*
X31845293Y-24100468D01*
X31845296Y-24100469D01*
X31851180Y-24102290D01*
X31857305Y-24102934D01*
X31857306Y-24102934D01*
X32046622Y-24122832D01*
X32046623Y-24122832D01*
X32052750Y-24123476D01*
X32162090Y-24113525D01*
X32248457Y-24105665D01*
X32248460Y-24105664D01*
X32254596Y-24105106D01*
X32260502Y-24103368D01*
X32260506Y-24103367D01*
X32443120Y-24049620D01*
X32443119Y-24049620D01*
X32449029Y-24047881D01*
X32454486Y-24045028D01*
X32454489Y-24045027D01*
X32554233Y-23992882D01*
X32628645Y-23953981D01*
X32786601Y-23826981D01*
X32916881Y-23671719D01*
X32919845Y-23666327D01*
X32919848Y-23666323D01*
X33011556Y-23499506D01*
X33014523Y-23494109D01*
X33055078Y-23366263D01*
X33094741Y-23307378D01*
X33159943Y-23279286D01*
X33229983Y-23290903D01*
X33282623Y-23338543D01*
X33295802Y-23367942D01*
X33329858Y-23480742D01*
X33425010Y-23659698D01*
X33553110Y-23816763D01*
X33557857Y-23820690D01*
X33557859Y-23820692D01*
X33704528Y-23942027D01*
X33704531Y-23942029D01*
X33709278Y-23945956D01*
X33887565Y-24042356D01*
X33956733Y-24063767D01*
X34075293Y-24100468D01*
X34075296Y-24100469D01*
X34081180Y-24102290D01*
X34087305Y-24102934D01*
X34087306Y-24102934D01*
X34276622Y-24122832D01*
X34276623Y-24122832D01*
X34282750Y-24123476D01*
X34392090Y-24113525D01*
X34478457Y-24105665D01*
X34478460Y-24105664D01*
X34484596Y-24105106D01*
X34490502Y-24103368D01*
X34490506Y-24103367D01*
X34673120Y-24049620D01*
X34673119Y-24049620D01*
X34679029Y-24047881D01*
X34684486Y-24045028D01*
X34684489Y-24045027D01*
X34784233Y-23992882D01*
X34858645Y-23953981D01*
X35016601Y-23826981D01*
X35146881Y-23671719D01*
X35149845Y-23666327D01*
X35149848Y-23666323D01*
X35241556Y-23499506D01*
X35244523Y-23494109D01*
X35280398Y-23381016D01*
X35320061Y-23322131D01*
X35385263Y-23294039D01*
X35455303Y-23305656D01*
X35507943Y-23353296D01*
X35526500Y-23419114D01*
X35526500Y-23658134D01*
X35533255Y-23720316D01*
X35584385Y-23856705D01*
X35671739Y-23973261D01*
X35788295Y-24060615D01*
X35924684Y-24111745D01*
X35986866Y-24118500D01*
X37133134Y-24118500D01*
X37195316Y-24111745D01*
X37331705Y-24060615D01*
X37448261Y-23973261D01*
X37535615Y-23856705D01*
X37552379Y-23811987D01*
X37583972Y-23727714D01*
X37583973Y-23727711D01*
X37586745Y-23720316D01*
X37587372Y-23714547D01*
X37622126Y-23653709D01*
X37685081Y-23620887D01*
X37709493Y-23618500D01*
X39991580Y-23618500D01*
X40059701Y-23638502D01*
X40089223Y-23664864D01*
X40213110Y-23816763D01*
X40217857Y-23820690D01*
X40217859Y-23820692D01*
X40364528Y-23942027D01*
X40364531Y-23942029D01*
X40369278Y-23945956D01*
X40547565Y-24042356D01*
X40616733Y-24063767D01*
X40735293Y-24100468D01*
X40735296Y-24100469D01*
X40741180Y-24102290D01*
X40747305Y-24102934D01*
X40747306Y-24102934D01*
X40936622Y-24122832D01*
X40936623Y-24122832D01*
X40942750Y-24123476D01*
X41052090Y-24113525D01*
X41138457Y-24105665D01*
X41138460Y-24105664D01*
X41144596Y-24105106D01*
X41150502Y-24103368D01*
X41150506Y-24103367D01*
X41333120Y-24049620D01*
X41333119Y-24049620D01*
X41339029Y-24047881D01*
X41344486Y-24045028D01*
X41344489Y-24045027D01*
X41444233Y-23992882D01*
X41518645Y-23953981D01*
X41676601Y-23826981D01*
X41806881Y-23671719D01*
X41809845Y-23666327D01*
X41809848Y-23666323D01*
X41901556Y-23499506D01*
X41904523Y-23494109D01*
X41945078Y-23366263D01*
X41984741Y-23307378D01*
X42049943Y-23279286D01*
X42119983Y-23290903D01*
X42172623Y-23338543D01*
X42185802Y-23367942D01*
X42219858Y-23480742D01*
X42315010Y-23659698D01*
X42443110Y-23816763D01*
X42447857Y-23820690D01*
X42447859Y-23820692D01*
X42594528Y-23942027D01*
X42594531Y-23942029D01*
X42599278Y-23945956D01*
X42777565Y-24042356D01*
X42846733Y-24063767D01*
X42965293Y-24100468D01*
X42965296Y-24100469D01*
X42971180Y-24102290D01*
X42977305Y-24102934D01*
X42977306Y-24102934D01*
X43166622Y-24122832D01*
X43166623Y-24122832D01*
X43172750Y-24123476D01*
X43282090Y-24113525D01*
X43368457Y-24105665D01*
X43368460Y-24105664D01*
X43374596Y-24105106D01*
X43380502Y-24103368D01*
X43380506Y-24103367D01*
X43563120Y-24049620D01*
X43563119Y-24049620D01*
X43569029Y-24047881D01*
X43574486Y-24045028D01*
X43574489Y-24045027D01*
X43674233Y-23992882D01*
X43748645Y-23953981D01*
X43906601Y-23826981D01*
X44036881Y-23671719D01*
X44039845Y-23666327D01*
X44039848Y-23666323D01*
X44131556Y-23499506D01*
X44134523Y-23494109D01*
X44170899Y-23379436D01*
X44210562Y-23320552D01*
X44275764Y-23292460D01*
X44345804Y-23304077D01*
X44398444Y-23351717D01*
X44417001Y-23417535D01*
X44417001Y-23654669D01*
X44417371Y-23661490D01*
X44422895Y-23712352D01*
X44426521Y-23727604D01*
X44471676Y-23848054D01*
X44480214Y-23863649D01*
X44556715Y-23965724D01*
X44569276Y-23978285D01*
X44671351Y-24054786D01*
X44686946Y-24063324D01*
X44807394Y-24108478D01*
X44822649Y-24112105D01*
X44873514Y-24117631D01*
X44880328Y-24118000D01*
X45177885Y-24118000D01*
X45193124Y-24113525D01*
X45194329Y-24112135D01*
X45196000Y-24104452D01*
X45196000Y-24099884D01*
X45704000Y-24099884D01*
X45708475Y-24115123D01*
X45709865Y-24116328D01*
X45717548Y-24117999D01*
X46019669Y-24117999D01*
X46026490Y-24117629D01*
X46077352Y-24112105D01*
X46092604Y-24108479D01*
X46213054Y-24063324D01*
X46228649Y-24054786D01*
X46330724Y-23978285D01*
X46343285Y-23965724D01*
X46419786Y-23863649D01*
X46428324Y-23848054D01*
X46473478Y-23727606D01*
X46477105Y-23712351D01*
X46482631Y-23661486D01*
X46483000Y-23654672D01*
X46483000Y-23132115D01*
X46478525Y-23116876D01*
X46477135Y-23115671D01*
X46469452Y-23114000D01*
X45722115Y-23114000D01*
X45706876Y-23118475D01*
X45705671Y-23119865D01*
X45704000Y-23127548D01*
X45704000Y-24099884D01*
X45196000Y-24099884D01*
X45196000Y-22587885D01*
X45704000Y-22587885D01*
X45708475Y-22603124D01*
X45709865Y-22604329D01*
X45717548Y-22606000D01*
X46464884Y-22606000D01*
X46480123Y-22601525D01*
X46481328Y-22600135D01*
X46482999Y-22592452D01*
X46482999Y-22065331D01*
X46482629Y-22058510D01*
X46477105Y-22007648D01*
X46473479Y-21992396D01*
X46428324Y-21871946D01*
X46419786Y-21856351D01*
X46343285Y-21754276D01*
X46330724Y-21741715D01*
X46228649Y-21665214D01*
X46213054Y-21656676D01*
X46092606Y-21611522D01*
X46077351Y-21607895D01*
X46026486Y-21602369D01*
X46019672Y-21602000D01*
X45722115Y-21602000D01*
X45706876Y-21606475D01*
X45705671Y-21607865D01*
X45704000Y-21615548D01*
X45704000Y-22587885D01*
X45196000Y-22587885D01*
X45196000Y-21620116D01*
X45191525Y-21604877D01*
X45190135Y-21603672D01*
X45182452Y-21602001D01*
X44880331Y-21602001D01*
X44873510Y-21602371D01*
X44822648Y-21607895D01*
X44807396Y-21611521D01*
X44686946Y-21656676D01*
X44671351Y-21665214D01*
X44569276Y-21741715D01*
X44556715Y-21754276D01*
X44480214Y-21856351D01*
X44471676Y-21871946D01*
X44426522Y-21992394D01*
X44422895Y-22007649D01*
X44417369Y-22058514D01*
X44417000Y-22065328D01*
X44417000Y-22302987D01*
X44396998Y-22371108D01*
X44343342Y-22417601D01*
X44273068Y-22427705D01*
X44208488Y-22398211D01*
X44170378Y-22339405D01*
X44169878Y-22337748D01*
X44140142Y-22239258D01*
X44044990Y-22060302D01*
X44034901Y-22047931D01*
X43966857Y-21964502D01*
X43939303Y-21899070D01*
X43938500Y-21884866D01*
X43938500Y-18146371D01*
X43958502Y-18078250D01*
X43975405Y-18057276D01*
X45457010Y-16575671D01*
X45519322Y-16541645D01*
X45557087Y-16539245D01*
X45714525Y-16553019D01*
X45720000Y-16553498D01*
X45948087Y-16533543D01*
X45953400Y-16532119D01*
X45953402Y-16532119D01*
X46163933Y-16475707D01*
X46163935Y-16475706D01*
X46169243Y-16474284D01*
X46216045Y-16452460D01*
X46371762Y-16379849D01*
X46371767Y-16379846D01*
X46376749Y-16377523D01*
X46532231Y-16268653D01*
X46559789Y-16249357D01*
X46559792Y-16249355D01*
X46564300Y-16246198D01*
X46726198Y-16084300D01*
X46857523Y-15896749D01*
X46859846Y-15891767D01*
X46859849Y-15891762D01*
X46951961Y-15694225D01*
X46951961Y-15694224D01*
X46954284Y-15689243D01*
X47013543Y-15468087D01*
X47033498Y-15240000D01*
X47013543Y-15011913D01*
X47012119Y-15006598D01*
X46955707Y-14796067D01*
X46955706Y-14796065D01*
X46954284Y-14790757D01*
X46945095Y-14771050D01*
X46859849Y-14588238D01*
X46859846Y-14588233D01*
X46857523Y-14583251D01*
X46726198Y-14395700D01*
X46564300Y-14233802D01*
X46559792Y-14230645D01*
X46559789Y-14230643D01*
X46453030Y-14155890D01*
X46376749Y-14102477D01*
X46371767Y-14100154D01*
X46371762Y-14100151D01*
X46174225Y-14008039D01*
X46174224Y-14008039D01*
X46169243Y-14005716D01*
X46163935Y-14004294D01*
X46163933Y-14004293D01*
X45953402Y-13947881D01*
X45953400Y-13947881D01*
X45948087Y-13946457D01*
X45720000Y-13926502D01*
X45491913Y-13946457D01*
X45486600Y-13947881D01*
X45486598Y-13947881D01*
X45276067Y-14004293D01*
X45276065Y-14004294D01*
X45270757Y-14005716D01*
X45265776Y-14008039D01*
X45265775Y-14008039D01*
X45068238Y-14100151D01*
X45068233Y-14100154D01*
X45063251Y-14102477D01*
X44986970Y-14155890D01*
X44880211Y-14230643D01*
X44880208Y-14230645D01*
X44875700Y-14233802D01*
X44713802Y-14395700D01*
X44582477Y-14583251D01*
X44580154Y-14588233D01*
X44580151Y-14588238D01*
X44494905Y-14771050D01*
X44485716Y-14790757D01*
X44484294Y-14796065D01*
X44484293Y-14796067D01*
X44427881Y-15006598D01*
X44426457Y-15011913D01*
X44406502Y-15240000D01*
X44406981Y-15245475D01*
X44420755Y-15402913D01*
X44406766Y-15472518D01*
X44384329Y-15502990D01*
X42691089Y-17196230D01*
X42676677Y-17208616D01*
X42665082Y-17217149D01*
X42665077Y-17217154D01*
X42659182Y-17221492D01*
X42654443Y-17227070D01*
X42654440Y-17227073D01*
X42624965Y-17261768D01*
X42618035Y-17269284D01*
X42612340Y-17274979D01*
X42610060Y-17277861D01*
X42594719Y-17297251D01*
X42591928Y-17300655D01*
X42549409Y-17350703D01*
X42544667Y-17356285D01*
X42541339Y-17362801D01*
X42537972Y-17367850D01*
X42534805Y-17372979D01*
X42530266Y-17378716D01*
X42499345Y-17444875D01*
X42497442Y-17448769D01*
X42464231Y-17513808D01*
X42462492Y-17520916D01*
X42460393Y-17526559D01*
X42458476Y-17532322D01*
X42455378Y-17538950D01*
X42453888Y-17546112D01*
X42453888Y-17546113D01*
X42440514Y-17610412D01*
X42439544Y-17614696D01*
X42422192Y-17685610D01*
X42421500Y-17696764D01*
X42421464Y-17696762D01*
X42421225Y-17700755D01*
X42420851Y-17704947D01*
X42419360Y-17712115D01*
X42419558Y-17719432D01*
X42421454Y-17789521D01*
X42421500Y-17792928D01*
X42421500Y-21885175D01*
X42401498Y-21953296D01*
X42392021Y-21966166D01*
X42327082Y-22043557D01*
X42327078Y-22043563D01*
X42323119Y-22048281D01*
X42320155Y-22053673D01*
X42320152Y-22053677D01*
X42252263Y-22177167D01*
X42225477Y-22225891D01*
X42223614Y-22231764D01*
X42184922Y-22353737D01*
X42145259Y-22412622D01*
X42080057Y-22440714D01*
X42010017Y-22429097D01*
X41957377Y-22381457D01*
X41944198Y-22352057D01*
X41939878Y-22337748D01*
X41910142Y-22239258D01*
X41814990Y-22060302D01*
X41804901Y-22047931D01*
X41727717Y-21953296D01*
X41686890Y-21903237D01*
X41665057Y-21885175D01*
X41535472Y-21777973D01*
X41535469Y-21777971D01*
X41530722Y-21774044D01*
X41352435Y-21677644D01*
X41255627Y-21647677D01*
X41164707Y-21619532D01*
X41164704Y-21619531D01*
X41158820Y-21617710D01*
X41152695Y-21617066D01*
X41152694Y-21617066D01*
X40963378Y-21597168D01*
X40963377Y-21597168D01*
X40957250Y-21596524D01*
X40878709Y-21603672D01*
X40761543Y-21614335D01*
X40761540Y-21614336D01*
X40755404Y-21614894D01*
X40749498Y-21616632D01*
X40749494Y-21616633D01*
X40634351Y-21650522D01*
X40560971Y-21672119D01*
X40555514Y-21674972D01*
X40555511Y-21674973D01*
X40471163Y-21719069D01*
X40381355Y-21766019D01*
X40223399Y-21893019D01*
X40093119Y-22048281D01*
X40093052Y-22048225D01*
X40039955Y-22091591D01*
X39990976Y-22101500D01*
X37709493Y-22101500D01*
X37641372Y-22081498D01*
X37594879Y-22027842D01*
X37587457Y-22006237D01*
X37586745Y-21999684D01*
X37583972Y-21992285D01*
X37538767Y-21871703D01*
X37535615Y-21863295D01*
X37448261Y-21746739D01*
X37331705Y-21659385D01*
X37195316Y-21608255D01*
X37133134Y-21601500D01*
X35986866Y-21601500D01*
X35924684Y-21608255D01*
X35788295Y-21659385D01*
X35671739Y-21746739D01*
X35584385Y-21863295D01*
X35533255Y-21999684D01*
X35526500Y-22061866D01*
X35526500Y-22301330D01*
X35506498Y-22369451D01*
X35452842Y-22415944D01*
X35382568Y-22426048D01*
X35317988Y-22396554D01*
X35279878Y-22337748D01*
X35258646Y-22267426D01*
X35250142Y-22239258D01*
X35154990Y-22060302D01*
X35144901Y-22047931D01*
X35067717Y-21953296D01*
X35026890Y-21903237D01*
X35005057Y-21885175D01*
X34875472Y-21777973D01*
X34875469Y-21777971D01*
X34870722Y-21774044D01*
X34692435Y-21677644D01*
X34595627Y-21647677D01*
X34504707Y-21619532D01*
X34504704Y-21619531D01*
X34498820Y-21617710D01*
X34492695Y-21617066D01*
X34492694Y-21617066D01*
X34303378Y-21597168D01*
X34303377Y-21597168D01*
X34297250Y-21596524D01*
X34252080Y-21600635D01*
X34174505Y-21607695D01*
X34104852Y-21593950D01*
X34073990Y-21571309D01*
X31275405Y-18772724D01*
X31241379Y-18710412D01*
X31238500Y-18683629D01*
X31238500Y-16371867D01*
X31258502Y-16303746D01*
X31292228Y-16268655D01*
X31324300Y-16246198D01*
X31486198Y-16084300D01*
X31617523Y-15896749D01*
X31619846Y-15891767D01*
X31619849Y-15891762D01*
X31711961Y-15694225D01*
X31711961Y-15694224D01*
X31714284Y-15689243D01*
X31773543Y-15468087D01*
X31793498Y-15240000D01*
X31773543Y-15011913D01*
X31772119Y-15006598D01*
X31715707Y-14796067D01*
X31715706Y-14796065D01*
X31714284Y-14790757D01*
X31705095Y-14771050D01*
X31619849Y-14588238D01*
X31619846Y-14588233D01*
X31617523Y-14583251D01*
X31486198Y-14395700D01*
X31324300Y-14233802D01*
X31319792Y-14230645D01*
X31319789Y-14230643D01*
X31213030Y-14155890D01*
X31136749Y-14102477D01*
X31131767Y-14100154D01*
X31131762Y-14100151D01*
X30934225Y-14008039D01*
X30934224Y-14008039D01*
X30929243Y-14005716D01*
X30923935Y-14004294D01*
X30923933Y-14004293D01*
X30713402Y-13947881D01*
X30713400Y-13947881D01*
X30708087Y-13946457D01*
X30480000Y-13926502D01*
X30251913Y-13946457D01*
X30246600Y-13947881D01*
X30246598Y-13947881D01*
X30036067Y-14004293D01*
X30036065Y-14004294D01*
X30030757Y-14005716D01*
X30025776Y-14008039D01*
X30025775Y-14008039D01*
X29828238Y-14100151D01*
X29828233Y-14100154D01*
X29823251Y-14102477D01*
X29746970Y-14155890D01*
X29640211Y-14230643D01*
X29640208Y-14230645D01*
X29635700Y-14233802D01*
X29473802Y-14395700D01*
X29342477Y-14583251D01*
X29340154Y-14588233D01*
X29340151Y-14588238D01*
X29254905Y-14771050D01*
X29245716Y-14790757D01*
X29244294Y-14796065D01*
X29244293Y-14796067D01*
X29187881Y-15006598D01*
X29186457Y-15011913D01*
X29166502Y-15240000D01*
X29186457Y-15468087D01*
X29245716Y-15689243D01*
X29248039Y-15694224D01*
X29248039Y-15694225D01*
X29340151Y-15891762D01*
X29340154Y-15891767D01*
X29342477Y-15896749D01*
X29473802Y-16084300D01*
X29635700Y-16246198D01*
X29667771Y-16268655D01*
X29712099Y-16324110D01*
X29721500Y-16371867D01*
X29721500Y-18982930D01*
X29720067Y-19001880D01*
X29716801Y-19023349D01*
X29717394Y-19030641D01*
X29717394Y-19030644D01*
X29721085Y-19076018D01*
X29721500Y-19086233D01*
X29721500Y-19094293D01*
X29721925Y-19097937D01*
X29724789Y-19122507D01*
X29725222Y-19126882D01*
X29731140Y-19199637D01*
X29733396Y-19206601D01*
X29734587Y-19212560D01*
X29735971Y-19218415D01*
X29736818Y-19225681D01*
X29761735Y-19294327D01*
X29763152Y-19298455D01*
X29785649Y-19367899D01*
X29789445Y-19374154D01*
X29791951Y-19379628D01*
X29794670Y-19385058D01*
X29797167Y-19391937D01*
X29801180Y-19398057D01*
X29801180Y-19398058D01*
X29837186Y-19452976D01*
X29839523Y-19456680D01*
X29877405Y-19519107D01*
X29881121Y-19523315D01*
X29881122Y-19523316D01*
X29884803Y-19527484D01*
X29884776Y-19527508D01*
X29887429Y-19530500D01*
X29890132Y-19533733D01*
X29894144Y-19539852D01*
X29899456Y-19544884D01*
X29950383Y-19593128D01*
X29952825Y-19595506D01*
X31797872Y-21440553D01*
X31831898Y-21502865D01*
X31826833Y-21573680D01*
X31784286Y-21630516D01*
X31744353Y-21650521D01*
X31670971Y-21672119D01*
X31665514Y-21674972D01*
X31665511Y-21674973D01*
X31581163Y-21719069D01*
X31491355Y-21766019D01*
X31333399Y-21893019D01*
X31203119Y-22048281D01*
X31203052Y-22048225D01*
X31149955Y-22091591D01*
X31100976Y-22101500D01*
X26737063Y-22101500D01*
X26718114Y-22100067D01*
X26717907Y-22100036D01*
X26696651Y-22096802D01*
X26689359Y-22097395D01*
X26689356Y-22097395D01*
X26643991Y-22101085D01*
X26633777Y-22101500D01*
X26625707Y-22101500D01*
X26622087Y-22101922D01*
X26622069Y-22101923D01*
X26597461Y-22104792D01*
X26593100Y-22105224D01*
X26567981Y-22107267D01*
X26527661Y-22110546D01*
X26527658Y-22110547D01*
X26520363Y-22111140D01*
X26513399Y-22113396D01*
X26507440Y-22114587D01*
X26501585Y-22115971D01*
X26494319Y-22116818D01*
X26425673Y-22141735D01*
X26421545Y-22143152D01*
X26359064Y-22163393D01*
X26359062Y-22163394D01*
X26352101Y-22165649D01*
X26345846Y-22169445D01*
X26340372Y-22171951D01*
X26334942Y-22174670D01*
X26328063Y-22177167D01*
X26267016Y-22217191D01*
X26263327Y-22219518D01*
X26243147Y-22231764D01*
X26205693Y-22254491D01*
X26205688Y-22254495D01*
X26200892Y-22257405D01*
X26192516Y-22264803D01*
X26192493Y-22264777D01*
X26189503Y-22267426D01*
X26186264Y-22270134D01*
X26180148Y-22274144D01*
X26175121Y-22279451D01*
X26175117Y-22279454D01*
X26126872Y-22330383D01*
X26124494Y-22332825D01*
X24480407Y-23976912D01*
X24418095Y-24010938D01*
X24369216Y-24011864D01*
X24268095Y-23993851D01*
X24268089Y-23993850D01*
X24263006Y-23992945D01*
X24190096Y-23992054D01*
X24036581Y-23990179D01*
X24036579Y-23990179D01*
X24031411Y-23990116D01*
X23887515Y-24012135D01*
X23817152Y-24002667D01*
X23779361Y-23976680D01*
X16155685Y-16353004D01*
X16121659Y-16290692D01*
X16126724Y-16219877D01*
X16155684Y-16174814D01*
X16246198Y-16084300D01*
X16377523Y-15896749D01*
X16379846Y-15891767D01*
X16379849Y-15891762D01*
X16471961Y-15694225D01*
X16471961Y-15694224D01*
X16474284Y-15689243D01*
X16533543Y-15468087D01*
X16553498Y-15240000D01*
X16533543Y-15011913D01*
X16532119Y-15006598D01*
X16475707Y-14796067D01*
X16475706Y-14796065D01*
X16474284Y-14790757D01*
X16465095Y-14771050D01*
X16379849Y-14588238D01*
X16379846Y-14588233D01*
X16377523Y-14583251D01*
X16246198Y-14395700D01*
X16084300Y-14233802D01*
X16079792Y-14230645D01*
X16079789Y-14230643D01*
X15973030Y-14155890D01*
X15896749Y-14102477D01*
X15891767Y-14100154D01*
X15891762Y-14100151D01*
X15694225Y-14008039D01*
X15694224Y-14008039D01*
X15689243Y-14005716D01*
X15683935Y-14004294D01*
X15683933Y-14004293D01*
X15473402Y-13947881D01*
X15473400Y-13947881D01*
X15468087Y-13946457D01*
X15240000Y-13926502D01*
X15011913Y-13946457D01*
X15006600Y-13947881D01*
X15006598Y-13947881D01*
X14796067Y-14004293D01*
X14796065Y-14004294D01*
X14790757Y-14005716D01*
X14785776Y-14008039D01*
X14785775Y-14008039D01*
X14588238Y-14100151D01*
X14588233Y-14100154D01*
X14583251Y-14102477D01*
X14506970Y-14155890D01*
X14400211Y-14230643D01*
X14400208Y-14230645D01*
X14395700Y-14233802D01*
X14233802Y-14395700D01*
X14102477Y-14583251D01*
X14100154Y-14588233D01*
X14100151Y-14588238D01*
X14014905Y-14771050D01*
X14005716Y-14790757D01*
X14004294Y-14796065D01*
X14004293Y-14796067D01*
X13947881Y-15006598D01*
X13946457Y-15011913D01*
X13926502Y-15240000D01*
X6393498Y-15240000D01*
X6373543Y-15011913D01*
X6372119Y-15006598D01*
X6315707Y-14796067D01*
X6315706Y-14796065D01*
X6314284Y-14790757D01*
X6305095Y-14771050D01*
X6219849Y-14588238D01*
X6219846Y-14588233D01*
X6217523Y-14583251D01*
X6086198Y-14395700D01*
X5924300Y-14233802D01*
X5892229Y-14211345D01*
X5847901Y-14155890D01*
X5838500Y-14108133D01*
X5838500Y-13916371D01*
X5858502Y-13848250D01*
X5875405Y-13827276D01*
X11102681Y-8600000D01*
X13016835Y-8600000D01*
X13035465Y-8836711D01*
X13090895Y-9067594D01*
X13181760Y-9286963D01*
X13184346Y-9291183D01*
X13303241Y-9485202D01*
X13303245Y-9485208D01*
X13305824Y-9489416D01*
X13460031Y-9669969D01*
X13640584Y-9824176D01*
X13644792Y-9826755D01*
X13644798Y-9826759D01*
X13771500Y-9904402D01*
X13843037Y-9948240D01*
X13847607Y-9950133D01*
X13847611Y-9950135D01*
X14057833Y-10037211D01*
X14062406Y-10039105D01*
X14142609Y-10058360D01*
X14288476Y-10093380D01*
X14288482Y-10093381D01*
X14293289Y-10094535D01*
X14530000Y-10113165D01*
X14766711Y-10094535D01*
X14771518Y-10093381D01*
X14771524Y-10093380D01*
X14917391Y-10058360D01*
X14997594Y-10039105D01*
X15002167Y-10037211D01*
X15212389Y-9950135D01*
X15212393Y-9950133D01*
X15216963Y-9948240D01*
X15288500Y-9904402D01*
X15415202Y-9826759D01*
X15415208Y-9826755D01*
X15419416Y-9824176D01*
X15599969Y-9669969D01*
X15754176Y-9489416D01*
X15797533Y-9418664D01*
X15850181Y-9371033D01*
X15904965Y-9358500D01*
X19655035Y-9358500D01*
X19723156Y-9378502D01*
X19762466Y-9418663D01*
X19805824Y-9489416D01*
X19960031Y-9669969D01*
X20140584Y-9824176D01*
X20211336Y-9867533D01*
X20258967Y-9920181D01*
X20271500Y-9974965D01*
X20271500Y-13815287D01*
X20251498Y-13883408D01*
X20197842Y-13929901D01*
X20156483Y-13940808D01*
X20091913Y-13946457D01*
X20086600Y-13947881D01*
X20086598Y-13947881D01*
X19876067Y-14004293D01*
X19876065Y-14004294D01*
X19870757Y-14005716D01*
X19865776Y-14008039D01*
X19865775Y-14008039D01*
X19668238Y-14100151D01*
X19668233Y-14100154D01*
X19663251Y-14102477D01*
X19586970Y-14155890D01*
X19480211Y-14230643D01*
X19480208Y-14230645D01*
X19475700Y-14233802D01*
X19313802Y-14395700D01*
X19182477Y-14583251D01*
X19180154Y-14588233D01*
X19180151Y-14588238D01*
X19094905Y-14771050D01*
X19085716Y-14790757D01*
X19084294Y-14796065D01*
X19084293Y-14796067D01*
X19027881Y-15006598D01*
X19026457Y-15011913D01*
X19006502Y-15240000D01*
X19026457Y-15468087D01*
X19085716Y-15689243D01*
X19088039Y-15694224D01*
X19088039Y-15694225D01*
X19180151Y-15891762D01*
X19180154Y-15891767D01*
X19182477Y-15896749D01*
X19313802Y-16084300D01*
X19475700Y-16246198D01*
X19480208Y-16249355D01*
X19480211Y-16249357D01*
X19507769Y-16268653D01*
X19663251Y-16377523D01*
X19668233Y-16379846D01*
X19668238Y-16379849D01*
X19823955Y-16452460D01*
X19870757Y-16474284D01*
X19876065Y-16475706D01*
X19876067Y-16475707D01*
X20086598Y-16532119D01*
X20086600Y-16532119D01*
X20091913Y-16533543D01*
X20320000Y-16553498D01*
X20548087Y-16533543D01*
X20553400Y-16532119D01*
X20553402Y-16532119D01*
X20763933Y-16475707D01*
X20763935Y-16475706D01*
X20769243Y-16474284D01*
X20816045Y-16452460D01*
X20971762Y-16379849D01*
X20971767Y-16379846D01*
X20976749Y-16377523D01*
X21132231Y-16268653D01*
X21159789Y-16249357D01*
X21159792Y-16249355D01*
X21164300Y-16246198D01*
X21326198Y-16084300D01*
X21457523Y-15896749D01*
X21459846Y-15891767D01*
X21459849Y-15891762D01*
X21551961Y-15694225D01*
X21551961Y-15694224D01*
X21554284Y-15689243D01*
X21613543Y-15468087D01*
X21633498Y-15240000D01*
X21618350Y-15066859D01*
X21632339Y-14997255D01*
X21647847Y-14974297D01*
X21660595Y-14959292D01*
X21665333Y-14953715D01*
X21668661Y-14947197D01*
X21672027Y-14942150D01*
X21675190Y-14937028D01*
X21679735Y-14931284D01*
X21710664Y-14865105D01*
X21712563Y-14861221D01*
X21745769Y-14796192D01*
X21747510Y-14789077D01*
X21749613Y-14783422D01*
X21751522Y-14777683D01*
X21754622Y-14771050D01*
X21769491Y-14699565D01*
X21770461Y-14695282D01*
X21786473Y-14629844D01*
X21787808Y-14624390D01*
X21788500Y-14613236D01*
X21788535Y-14613238D01*
X21788775Y-14609266D01*
X21789152Y-14605045D01*
X21790641Y-14597885D01*
X21788546Y-14520458D01*
X21788500Y-14517050D01*
X21788500Y-9974965D01*
X21808502Y-9906844D01*
X21848664Y-9867533D01*
X21919416Y-9824176D01*
X22099969Y-9669969D01*
X22254176Y-9489416D01*
X22256755Y-9485208D01*
X22256759Y-9485202D01*
X22375654Y-9291183D01*
X22378240Y-9286963D01*
X22469105Y-9067594D01*
X22524535Y-8836711D01*
X22543165Y-8600000D01*
X28256835Y-8600000D01*
X28275465Y-8836711D01*
X28330895Y-9067594D01*
X28421760Y-9286963D01*
X28424346Y-9291183D01*
X28543241Y-9485202D01*
X28543245Y-9485208D01*
X28545824Y-9489416D01*
X28700031Y-9669969D01*
X28880584Y-9824176D01*
X28884792Y-9826755D01*
X28884798Y-9826759D01*
X29011500Y-9904402D01*
X29083037Y-9948240D01*
X29087607Y-9950133D01*
X29087611Y-9950135D01*
X29297833Y-10037211D01*
X29302406Y-10039105D01*
X29382609Y-10058360D01*
X29528476Y-10093380D01*
X29528482Y-10093381D01*
X29533289Y-10094535D01*
X29770000Y-10113165D01*
X30006711Y-10094535D01*
X30011518Y-10093381D01*
X30011524Y-10093380D01*
X30157391Y-10058360D01*
X30237594Y-10039105D01*
X30242167Y-10037211D01*
X30452389Y-9950135D01*
X30452393Y-9950133D01*
X30456963Y-9948240D01*
X30528500Y-9904402D01*
X30655202Y-9826759D01*
X30655208Y-9826755D01*
X30659416Y-9824176D01*
X30839969Y-9669969D01*
X30994176Y-9489416D01*
X31037533Y-9418664D01*
X31090181Y-9371033D01*
X31144965Y-9358500D01*
X34895035Y-9358500D01*
X34963156Y-9378502D01*
X35002466Y-9418663D01*
X35045824Y-9489416D01*
X35200031Y-9669969D01*
X35380584Y-9824176D01*
X35451336Y-9867533D01*
X35498967Y-9920181D01*
X35511500Y-9974965D01*
X35511500Y-13815287D01*
X35491498Y-13883408D01*
X35437842Y-13929901D01*
X35396483Y-13940808D01*
X35331913Y-13946457D01*
X35326600Y-13947881D01*
X35326598Y-13947881D01*
X35116067Y-14004293D01*
X35116065Y-14004294D01*
X35110757Y-14005716D01*
X35105776Y-14008039D01*
X35105775Y-14008039D01*
X34908238Y-14100151D01*
X34908233Y-14100154D01*
X34903251Y-14102477D01*
X34826970Y-14155890D01*
X34720211Y-14230643D01*
X34720208Y-14230645D01*
X34715700Y-14233802D01*
X34553802Y-14395700D01*
X34422477Y-14583251D01*
X34420154Y-14588233D01*
X34420151Y-14588238D01*
X34334905Y-14771050D01*
X34325716Y-14790757D01*
X34324294Y-14796065D01*
X34324293Y-14796067D01*
X34267881Y-15006598D01*
X34266457Y-15011913D01*
X34246502Y-15240000D01*
X34266457Y-15468087D01*
X34325716Y-15689243D01*
X34328039Y-15694224D01*
X34328039Y-15694225D01*
X34420151Y-15891762D01*
X34420154Y-15891767D01*
X34422477Y-15896749D01*
X34553802Y-16084300D01*
X34715700Y-16246198D01*
X34720208Y-16249355D01*
X34720211Y-16249357D01*
X34747769Y-16268653D01*
X34903251Y-16377523D01*
X34908233Y-16379846D01*
X34908238Y-16379849D01*
X35063955Y-16452460D01*
X35110757Y-16474284D01*
X35116065Y-16475706D01*
X35116067Y-16475707D01*
X35326598Y-16532119D01*
X35326600Y-16532119D01*
X35331913Y-16533543D01*
X35560000Y-16553498D01*
X35788087Y-16533543D01*
X35793400Y-16532119D01*
X35793402Y-16532119D01*
X36003933Y-16475707D01*
X36003935Y-16475706D01*
X36009243Y-16474284D01*
X36056045Y-16452460D01*
X36211762Y-16379849D01*
X36211767Y-16379846D01*
X36216749Y-16377523D01*
X36372231Y-16268653D01*
X36399789Y-16249357D01*
X36399792Y-16249355D01*
X36404300Y-16246198D01*
X36566198Y-16084300D01*
X36697523Y-15896749D01*
X36699846Y-15891767D01*
X36699849Y-15891762D01*
X36791961Y-15694225D01*
X36791961Y-15694224D01*
X36794284Y-15689243D01*
X36853543Y-15468087D01*
X36873498Y-15240000D01*
X36858350Y-15066859D01*
X36872339Y-14997255D01*
X36887847Y-14974297D01*
X36900595Y-14959292D01*
X36905333Y-14953715D01*
X36908661Y-14947197D01*
X36912027Y-14942150D01*
X36915190Y-14937028D01*
X36919735Y-14931284D01*
X36950664Y-14865105D01*
X36952563Y-14861221D01*
X36985769Y-14796192D01*
X36987510Y-14789077D01*
X36989613Y-14783422D01*
X36991522Y-14777683D01*
X36994622Y-14771050D01*
X37009491Y-14699565D01*
X37010461Y-14695282D01*
X37026473Y-14629844D01*
X37027808Y-14624390D01*
X37028500Y-14613236D01*
X37028535Y-14613238D01*
X37028775Y-14609266D01*
X37029152Y-14605045D01*
X37030641Y-14597885D01*
X37028546Y-14520458D01*
X37028500Y-14517050D01*
X37028500Y-9974965D01*
X37048502Y-9906844D01*
X37088664Y-9867533D01*
X37159416Y-9824176D01*
X37339969Y-9669969D01*
X37494176Y-9489416D01*
X37496755Y-9485208D01*
X37496759Y-9485202D01*
X37615654Y-9291183D01*
X37618240Y-9286963D01*
X37709105Y-9067594D01*
X37764535Y-8836711D01*
X37783165Y-8600000D01*
X37764535Y-8363289D01*
X37709105Y-8132406D01*
X37618240Y-7913037D01*
X37562145Y-7821498D01*
X37496759Y-7714798D01*
X37496755Y-7714792D01*
X37494176Y-7710584D01*
X37339969Y-7530031D01*
X37159416Y-7375824D01*
X37155208Y-7373245D01*
X37155202Y-7373241D01*
X36961183Y-7254346D01*
X36956963Y-7251760D01*
X36952393Y-7249867D01*
X36952389Y-7249865D01*
X36742167Y-7162789D01*
X36742165Y-7162788D01*
X36737594Y-7160895D01*
X36657391Y-7141640D01*
X36511524Y-7106620D01*
X36511518Y-7106619D01*
X36506711Y-7105465D01*
X36270000Y-7086835D01*
X36033289Y-7105465D01*
X36028482Y-7106619D01*
X36028476Y-7106620D01*
X35882609Y-7141640D01*
X35802406Y-7160895D01*
X35797835Y-7162788D01*
X35797833Y-7162789D01*
X35587611Y-7249865D01*
X35587607Y-7249867D01*
X35583037Y-7251760D01*
X35578817Y-7254346D01*
X35384798Y-7373241D01*
X35384792Y-7373245D01*
X35380584Y-7375824D01*
X35200031Y-7530031D01*
X35045824Y-7710584D01*
X35002467Y-7781336D01*
X34949819Y-7828967D01*
X34895035Y-7841500D01*
X31144965Y-7841500D01*
X31076844Y-7821498D01*
X31037533Y-7781336D01*
X30994176Y-7710584D01*
X30839969Y-7530031D01*
X30659416Y-7375824D01*
X30655208Y-7373245D01*
X30655202Y-7373241D01*
X30461183Y-7254346D01*
X30456963Y-7251760D01*
X30452393Y-7249867D01*
X30452389Y-7249865D01*
X30242167Y-7162789D01*
X30242165Y-7162788D01*
X30237594Y-7160895D01*
X30157391Y-7141640D01*
X30011524Y-7106620D01*
X30011518Y-7106619D01*
X30006711Y-7105465D01*
X29770000Y-7086835D01*
X29533289Y-7105465D01*
X29528482Y-7106619D01*
X29528476Y-7106620D01*
X29382609Y-7141640D01*
X29302406Y-7160895D01*
X29297835Y-7162788D01*
X29297833Y-7162789D01*
X29087611Y-7249865D01*
X29087607Y-7249867D01*
X29083037Y-7251760D01*
X29078817Y-7254346D01*
X28884798Y-7373241D01*
X28884792Y-7373245D01*
X28880584Y-7375824D01*
X28700031Y-7530031D01*
X28545824Y-7710584D01*
X28543245Y-7714792D01*
X28543241Y-7714798D01*
X28477855Y-7821498D01*
X28421760Y-7913037D01*
X28330895Y-8132406D01*
X28275465Y-8363289D01*
X28256835Y-8600000D01*
X22543165Y-8600000D01*
X22524535Y-8363289D01*
X22469105Y-8132406D01*
X22378240Y-7913037D01*
X22322145Y-7821498D01*
X22256759Y-7714798D01*
X22256755Y-7714792D01*
X22254176Y-7710584D01*
X22099969Y-7530031D01*
X21919416Y-7375824D01*
X21915208Y-7373245D01*
X21915202Y-7373241D01*
X21721183Y-7254346D01*
X21716963Y-7251760D01*
X21712393Y-7249867D01*
X21712389Y-7249865D01*
X21502167Y-7162789D01*
X21502165Y-7162788D01*
X21497594Y-7160895D01*
X21417391Y-7141640D01*
X21271524Y-7106620D01*
X21271518Y-7106619D01*
X21266711Y-7105465D01*
X21030000Y-7086835D01*
X20793289Y-7105465D01*
X20788482Y-7106619D01*
X20788476Y-7106620D01*
X20642609Y-7141640D01*
X20562406Y-7160895D01*
X20557835Y-7162788D01*
X20557833Y-7162789D01*
X20347611Y-7249865D01*
X20347607Y-7249867D01*
X20343037Y-7251760D01*
X20338817Y-7254346D01*
X20144798Y-7373241D01*
X20144792Y-7373245D01*
X20140584Y-7375824D01*
X19960031Y-7530031D01*
X19805824Y-7710584D01*
X19762467Y-7781336D01*
X19709819Y-7828967D01*
X19655035Y-7841500D01*
X15904965Y-7841500D01*
X15836844Y-7821498D01*
X15797533Y-7781336D01*
X15754176Y-7710584D01*
X15599969Y-7530031D01*
X15419416Y-7375824D01*
X15415208Y-7373245D01*
X15415202Y-7373241D01*
X15221183Y-7254346D01*
X15216963Y-7251760D01*
X15212393Y-7249867D01*
X15212389Y-7249865D01*
X15002167Y-7162789D01*
X15002165Y-7162788D01*
X14997594Y-7160895D01*
X14917391Y-7141640D01*
X14771524Y-7106620D01*
X14771518Y-7106619D01*
X14766711Y-7105465D01*
X14530000Y-7086835D01*
X14293289Y-7105465D01*
X14288482Y-7106619D01*
X14288476Y-7106620D01*
X14142609Y-7141640D01*
X14062406Y-7160895D01*
X14057835Y-7162788D01*
X14057833Y-7162789D01*
X13847611Y-7249865D01*
X13847607Y-7249867D01*
X13843037Y-7251760D01*
X13838817Y-7254346D01*
X13644798Y-7373241D01*
X13644792Y-7373245D01*
X13640584Y-7375824D01*
X13460031Y-7530031D01*
X13305824Y-7710584D01*
X13303245Y-7714792D01*
X13303241Y-7714798D01*
X13237855Y-7821498D01*
X13181760Y-7913037D01*
X13090895Y-8132406D01*
X13035465Y-8363289D01*
X13016835Y-8600000D01*
X11102681Y-8600000D01*
X14094093Y-5608588D01*
X14156405Y-5574562D01*
X14212602Y-5575164D01*
X14288476Y-5593380D01*
X14288482Y-5593381D01*
X14293289Y-5594535D01*
X14530000Y-5613165D01*
X14766711Y-5594535D01*
X14771518Y-5593381D01*
X14771524Y-5593380D01*
X14917391Y-5558360D01*
X14997594Y-5539105D01*
X15002167Y-5537211D01*
X15212389Y-5450135D01*
X15212393Y-5450133D01*
X15216963Y-5448240D01*
X15221183Y-5445654D01*
X15415202Y-5326759D01*
X15415208Y-5326755D01*
X15419416Y-5324176D01*
X15599969Y-5169969D01*
X15754176Y-4989416D01*
X15797533Y-4918664D01*
X15850181Y-4871033D01*
X15904965Y-4858500D01*
X19655035Y-4858500D01*
X19723156Y-4878502D01*
X19762466Y-4918663D01*
X19805824Y-4989416D01*
X19960031Y-5169969D01*
X20140584Y-5324176D01*
X20144792Y-5326755D01*
X20144798Y-5326759D01*
X20338817Y-5445654D01*
X20343037Y-5448240D01*
X20347607Y-5450133D01*
X20347611Y-5450135D01*
X20557833Y-5537211D01*
X20562406Y-5539105D01*
X20642609Y-5558360D01*
X20788476Y-5593380D01*
X20788482Y-5593381D01*
X20793289Y-5594535D01*
X21030000Y-5613165D01*
X21266711Y-5594535D01*
X21271518Y-5593381D01*
X21271524Y-5593380D01*
X21417391Y-5558360D01*
X21497594Y-5539105D01*
X21502167Y-5537211D01*
X21712389Y-5450135D01*
X21712393Y-5450133D01*
X21716963Y-5448240D01*
X21721183Y-5445654D01*
X21915202Y-5326759D01*
X21915208Y-5326755D01*
X21919416Y-5324176D01*
X22099969Y-5169969D01*
X22254176Y-4989416D01*
X22297533Y-4918664D01*
X22350181Y-4871033D01*
X22404965Y-4858500D01*
X28395035Y-4858500D01*
X28463156Y-4878502D01*
X28502466Y-4918663D01*
X28545824Y-4989416D01*
X28700031Y-5169969D01*
X28880584Y-5324176D01*
X28884792Y-5326755D01*
X28884798Y-5326759D01*
X29078817Y-5445654D01*
X29083037Y-5448240D01*
X29087607Y-5450133D01*
X29087611Y-5450135D01*
X29297833Y-5537211D01*
X29302406Y-5539105D01*
X29382609Y-5558360D01*
X29528476Y-5593380D01*
X29528482Y-5593381D01*
X29533289Y-5594535D01*
X29770000Y-5613165D01*
X30006711Y-5594535D01*
X30011518Y-5593381D01*
X30011524Y-5593380D01*
X30157391Y-5558360D01*
X30237594Y-5539105D01*
X30242167Y-5537211D01*
X30452389Y-5450135D01*
X30452393Y-5450133D01*
X30456963Y-5448240D01*
X30461183Y-5445654D01*
X30655202Y-5326759D01*
X30655208Y-5326755D01*
X30659416Y-5324176D01*
X30839969Y-5169969D01*
X30994176Y-4989416D01*
X31037533Y-4918664D01*
X31090181Y-4871033D01*
X31144965Y-4858500D01*
X34895035Y-4858500D01*
X34963156Y-4878502D01*
X35002466Y-4918663D01*
X35045824Y-4989416D01*
X35200031Y-5169969D01*
X35380584Y-5324176D01*
X35384792Y-5326755D01*
X35384798Y-5326759D01*
X35578817Y-5445654D01*
X35583037Y-5448240D01*
X35587607Y-5450133D01*
X35587611Y-5450135D01*
X35797833Y-5537211D01*
X35802406Y-5539105D01*
X35882609Y-5558360D01*
X36028476Y-5593380D01*
X36028482Y-5593381D01*
X36033289Y-5594535D01*
X36270000Y-5613165D01*
X36506711Y-5594535D01*
X36511518Y-5593381D01*
X36511524Y-5593380D01*
X36657391Y-5558360D01*
X36737594Y-5539105D01*
X36742167Y-5537211D01*
X36952389Y-5450135D01*
X36952393Y-5450133D01*
X36956963Y-5448240D01*
X36961183Y-5445654D01*
X37155202Y-5326759D01*
X37155208Y-5326755D01*
X37159416Y-5324176D01*
X37339969Y-5169969D01*
X37494176Y-4989416D01*
X37496755Y-4985208D01*
X37496759Y-4985202D01*
X37615654Y-4791183D01*
X37618240Y-4786963D01*
X37709105Y-4567594D01*
X37764535Y-4336711D01*
X37783165Y-4100000D01*
X37764535Y-3863289D01*
X37709105Y-3632406D01*
X37618240Y-3413037D01*
X37562145Y-3321498D01*
X37496759Y-3214798D01*
X37496755Y-3214792D01*
X37494176Y-3210584D01*
X37339969Y-3030031D01*
X37159416Y-2875824D01*
X37155208Y-2873245D01*
X37155202Y-2873241D01*
X36961183Y-2754346D01*
X36956963Y-2751760D01*
X36952393Y-2749867D01*
X36952389Y-2749865D01*
X36742167Y-2662789D01*
X36742165Y-2662788D01*
X36737594Y-2660895D01*
X36657391Y-2641640D01*
X36511524Y-2606620D01*
X36511518Y-2606619D01*
X36506711Y-2605465D01*
X36270000Y-2586835D01*
X36033289Y-2605465D01*
X36028482Y-2606619D01*
X36028476Y-2606620D01*
X35882609Y-2641640D01*
X35802406Y-2660895D01*
X35797835Y-2662788D01*
X35797833Y-2662789D01*
X35587611Y-2749865D01*
X35587607Y-2749867D01*
X35583037Y-2751760D01*
X35578817Y-2754346D01*
X35384798Y-2873241D01*
X35384792Y-2873245D01*
X35380584Y-2875824D01*
X35200031Y-3030031D01*
X35045824Y-3210584D01*
X35002467Y-3281336D01*
X34949819Y-3328967D01*
X34895035Y-3341500D01*
X31144965Y-3341500D01*
X31076844Y-3321498D01*
X31037533Y-3281336D01*
X30994176Y-3210584D01*
X30839969Y-3030031D01*
X30659416Y-2875824D01*
X30655208Y-2873245D01*
X30655202Y-2873241D01*
X30461183Y-2754346D01*
X30456963Y-2751760D01*
X30452393Y-2749867D01*
X30452389Y-2749865D01*
X30242167Y-2662789D01*
X30242165Y-2662788D01*
X30237594Y-2660895D01*
X30157391Y-2641640D01*
X30011524Y-2606620D01*
X30011518Y-2606619D01*
X30006711Y-2605465D01*
X29770000Y-2586835D01*
X29533289Y-2605465D01*
X29528482Y-2606619D01*
X29528476Y-2606620D01*
X29382609Y-2641640D01*
X29302406Y-2660895D01*
X29297835Y-2662788D01*
X29297833Y-2662789D01*
X29087611Y-2749865D01*
X29087607Y-2749867D01*
X29083037Y-2751760D01*
X29078817Y-2754346D01*
X28884798Y-2873241D01*
X28884792Y-2873245D01*
X28880584Y-2875824D01*
X28700031Y-3030031D01*
X28545824Y-3210584D01*
X28502467Y-3281336D01*
X28449819Y-3328967D01*
X28395035Y-3341500D01*
X22404965Y-3341500D01*
X22336844Y-3321498D01*
X22297533Y-3281336D01*
X22254176Y-3210584D01*
X22099969Y-3030031D01*
X21919416Y-2875824D01*
X21915208Y-2873245D01*
X21915202Y-2873241D01*
X21721183Y-2754346D01*
X21716963Y-2751760D01*
X21712393Y-2749867D01*
X21712389Y-2749865D01*
X21502167Y-2662789D01*
X21502165Y-2662788D01*
X21497594Y-2660895D01*
X21417391Y-2641640D01*
X21271524Y-2606620D01*
X21271518Y-2606619D01*
X21266711Y-2605465D01*
X21030000Y-2586835D01*
X20793289Y-2605465D01*
X20788482Y-2606619D01*
X20788476Y-2606620D01*
X20642609Y-2641640D01*
X20562406Y-2660895D01*
X20557835Y-2662788D01*
X20557833Y-2662789D01*
X20347611Y-2749865D01*
X20347607Y-2749867D01*
X20343037Y-2751760D01*
X20338817Y-2754346D01*
X20144798Y-2873241D01*
X20144792Y-2873245D01*
X20140584Y-2875824D01*
X19960031Y-3030031D01*
X19805824Y-3210584D01*
X19762467Y-3281336D01*
X19709819Y-3328967D01*
X19655035Y-3341500D01*
X15904965Y-3341500D01*
X15836844Y-3321498D01*
X15797533Y-3281336D01*
X15754176Y-3210584D01*
X15599969Y-3030031D01*
X15419416Y-2875824D01*
X15415208Y-2873245D01*
X15415202Y-2873241D01*
X15221183Y-2754346D01*
X15216963Y-2751760D01*
X15212393Y-2749867D01*
X15212389Y-2749865D01*
X15002167Y-2662789D01*
X15002165Y-2662788D01*
X14997594Y-2660895D01*
X14917391Y-2641640D01*
X14771524Y-2606620D01*
X14771518Y-2606619D01*
X14766711Y-2605465D01*
X14530000Y-2586835D01*
X14293289Y-2605465D01*
X14288482Y-2606619D01*
X14288476Y-2606620D01*
X14142609Y-2641640D01*
X14062406Y-2660895D01*
X14057835Y-2662788D01*
X14057833Y-2662789D01*
X13847611Y-2749865D01*
X13847607Y-2749867D01*
X13843037Y-2751760D01*
X13838817Y-2754346D01*
X13644798Y-2873241D01*
X13644792Y-2873245D01*
X13640584Y-2875824D01*
X13460031Y-3030031D01*
X13305824Y-3210584D01*
X13303245Y-3214792D01*
X13303241Y-3214798D01*
X13237855Y-3321498D01*
X13181760Y-3413037D01*
X13090895Y-3632406D01*
X13035465Y-3863289D01*
X13016835Y-4100000D01*
X13035465Y-4336711D01*
X13036619Y-4341518D01*
X13036620Y-4341524D01*
X13054836Y-4417398D01*
X13051289Y-4488306D01*
X13021412Y-4535907D01*
X4591089Y-12966230D01*
X4576677Y-12978616D01*
X4565082Y-12987149D01*
X4565077Y-12987154D01*
X4559182Y-12991492D01*
X4554443Y-12997070D01*
X4554440Y-12997073D01*
X4524965Y-13031768D01*
X4518035Y-13039284D01*
X4512340Y-13044979D01*
X4510060Y-13047861D01*
X4494719Y-13067251D01*
X4491928Y-13070655D01*
X4449409Y-13120703D01*
X4444667Y-13126285D01*
X4441339Y-13132801D01*
X4437972Y-13137850D01*
X4434805Y-13142979D01*
X4430266Y-13148716D01*
X4399345Y-13214875D01*
X4397442Y-13218769D01*
X4364231Y-13283808D01*
X4362492Y-13290916D01*
X4360393Y-13296559D01*
X4358476Y-13302322D01*
X4355378Y-13308950D01*
X4353888Y-13316112D01*
X4353888Y-13316113D01*
X4340514Y-13380412D01*
X4339544Y-13384696D01*
X4322192Y-13455610D01*
X4321500Y-13466764D01*
X4321464Y-13466762D01*
X4321225Y-13470755D01*
X4320851Y-13474947D01*
X4319360Y-13482115D01*
X4319558Y-13489432D01*
X4321454Y-13559521D01*
X4321500Y-13562928D01*
X4321500Y-14108133D01*
X4301498Y-14176254D01*
X4267772Y-14211345D01*
X4235700Y-14233802D01*
X4073802Y-14395700D01*
X3942477Y-14583251D01*
X3940154Y-14588233D01*
X3940151Y-14588238D01*
X3854905Y-14771050D01*
X3845716Y-14790757D01*
X3844294Y-14796065D01*
X3844293Y-14796067D01*
X3787881Y-15006598D01*
X3786457Y-15011913D01*
X3766502Y-15240000D01*
X508500Y-15240000D01*
X508500Y-634500D01*
X528502Y-566379D01*
X582158Y-519886D01*
X634500Y-508500D01*
X47625500Y-508500D01*
X47693621Y-528502D01*
G37*
%TD.AperFunction*%
%TD*%
M02*
