%TF.GenerationSoftware,KiCad,Pcbnew,(6.0.9)*%
%TF.CreationDate,2024-03-08T19:22:42-05:00*%
%TF.ProjectId,nand-test,6e616e64-2d74-4657-9374-2e6b69636164,v01*%
%TF.SameCoordinates,PX4d83c00PY354a940*%
%TF.FileFunction,Copper,L2,Bot*%
%TF.FilePolarity,Positive*%
%FSLAX46Y46*%
G04 Gerber Fmt 4.6, Leading zero omitted, Abs format (unit mm)*
G04 Created by KiCad (PCBNEW (6.0.9)) date 2024-03-08 19:22:42*
%MOMM*%
%LPD*%
G01*
G04 APERTURE LIST*
%TA.AperFunction,ComponentPad*%
%ADD10R,1.050000X1.500000*%
%TD*%
%TA.AperFunction,ComponentPad*%
%ADD11O,1.050000X1.500000*%
%TD*%
%TA.AperFunction,ComponentPad*%
%ADD12R,1.800000X1.800000*%
%TD*%
%TA.AperFunction,ComponentPad*%
%ADD13C,1.800000*%
%TD*%
%TA.AperFunction,ComponentPad*%
%ADD14C,1.600000*%
%TD*%
%TA.AperFunction,ComponentPad*%
%ADD15O,1.600000X1.600000*%
%TD*%
%TA.AperFunction,ComponentPad*%
%ADD16C,2.000000*%
%TD*%
%TA.AperFunction,ComponentPad*%
%ADD17O,3.960000X1.980000*%
%TD*%
%TA.AperFunction,ComponentPad*%
%ADD18R,3.960000X1.980000*%
%TD*%
%TA.AperFunction,Conductor*%
%ADD19C,0.500000*%
%TD*%
G04 APERTURE END LIST*
D10*
%TO.P,Q2,1,E*%
%TO.N,GND*%
X45450000Y-22860000D03*
D11*
%TO.P,Q2,2,B*%
%TO.N,Net-(Q2-Pad2)*%
X43180000Y-22860000D03*
%TO.P,Q2,3,C*%
%TO.N,Net-(Q1-Pad1)*%
X40950000Y-22860000D03*
%TD*%
D12*
%TO.P,D1,1,K*%
%TO.N,GND*%
X24130000Y-27940000D03*
D13*
%TO.P,D1,2,A*%
%TO.N,Net-(D1-Pad2)*%
X24130000Y-25400000D03*
%TD*%
D14*
%TO.P,R3,1*%
%TO.N,+5V*%
X5080000Y-15240000D03*
D15*
%TO.P,R3,2*%
%TO.N,Net-(D1-Pad2)*%
X15240000Y-15240000D03*
%TD*%
D10*
%TO.P,Q1,1,E*%
%TO.N,Net-(Q1-Pad1)*%
X36560000Y-22860000D03*
D11*
%TO.P,Q1,2,B*%
%TO.N,Net-(Q1-Pad2)*%
X34290000Y-22860000D03*
%TO.P,Q1,3,C*%
%TO.N,Net-(D1-Pad2)*%
X32060000Y-22860000D03*
%TD*%
D16*
%TO.P,SW1,1,A*%
%TO.N,+5V*%
X21030000Y-4100000D03*
X14530000Y-4100000D03*
%TO.P,SW1,2,B*%
%TO.N,Net-(R1-Pad1)*%
X14530000Y-8600000D03*
X21030000Y-8600000D03*
%TD*%
D14*
%TO.P,R1,1*%
%TO.N,Net-(R1-Pad1)*%
X20320000Y-15240000D03*
D15*
%TO.P,R1,2*%
%TO.N,Net-(Q1-Pad2)*%
X30480000Y-15240000D03*
%TD*%
D16*
%TO.P,SW2,1,A*%
%TO.N,+5V*%
X29770000Y-4100000D03*
X36270000Y-4100000D03*
%TO.P,SW2,2,B*%
%TO.N,Net-(R2-Pad1)*%
X29770000Y-8600000D03*
X36270000Y-8600000D03*
%TD*%
D15*
%TO.P,R2,2*%
%TO.N,Net-(Q2-Pad2)*%
X45720000Y-15240000D03*
D14*
%TO.P,R2,1*%
%TO.N,Net-(R2-Pad1)*%
X35560000Y-15240000D03*
%TD*%
D17*
%TO.P,J1,.8,Pin_2*%
%TO.N,GND*%
X10160000Y-27860000D03*
D18*
%TO.P,J1,1,Pin_1*%
%TO.N,+5V*%
X10160000Y-22860000D03*
%TD*%
D19*
%TO.N,GND*%
X24050000Y-27860000D02*
X24130000Y-27940000D01*
%TO.N,Net-(D1-Pad2)*%
X24130000Y-25400000D02*
X26670000Y-22860000D01*
X24130000Y-25400000D02*
X15240000Y-16510000D01*
X26670000Y-22860000D02*
X32060000Y-22860000D01*
X15240000Y-16510000D02*
X15240000Y-15240000D01*
%TO.N,+5V*%
X5080000Y-13550000D02*
X14530000Y-4100000D01*
X5080000Y-17780000D02*
X10160000Y-22860000D01*
X14530000Y-4100000D02*
X21030000Y-4100000D01*
X5080000Y-15240000D02*
X5080000Y-17780000D01*
X29770000Y-4100000D02*
X21030000Y-4100000D01*
X36270000Y-4100000D02*
X29770000Y-4100000D01*
X5080000Y-15240000D02*
X5080000Y-13550000D01*
%TO.N,Net-(Q1-Pad1)*%
X36560000Y-22860000D02*
X40950000Y-22860000D01*
%TO.N,Net-(Q1-Pad2)*%
X30480000Y-19050000D02*
X34290000Y-22860000D01*
X30480000Y-15240000D02*
X30480000Y-19050000D01*
%TO.N,Net-(Q2-Pad2)*%
X43180000Y-17780000D02*
X45720000Y-15240000D01*
X43180000Y-22860000D02*
X43180000Y-17780000D01*
%TO.N,Net-(R1-Pad1)*%
X21030000Y-14530000D02*
X20320000Y-15240000D01*
X14530000Y-8600000D02*
X21030000Y-8600000D01*
X21030000Y-8600000D02*
X21030000Y-14530000D01*
%TO.N,Net-(R2-Pad1)*%
X36270000Y-8600000D02*
X36270000Y-14530000D01*
X36270000Y-14530000D02*
X35560000Y-15240000D01*
X29770000Y-8600000D02*
X36270000Y-8600000D01*
%TD*%
%TA.AperFunction,Conductor*%
%TO.N,GND*%
G36*
X48201121Y-21002D02*
G01*
X48247614Y-74658D01*
X48259000Y-127000D01*
X48259000Y-32893000D01*
X48238998Y-32961121D01*
X48185342Y-33007614D01*
X48133000Y-33019000D01*
X127000Y-33019000D01*
X58879Y-32998998D01*
X12386Y-32945342D01*
X1000Y-32893000D01*
X1000Y-28132194D01*
X7696135Y-28132194D01*
X7707006Y-28203236D01*
X7709395Y-28213263D01*
X7782709Y-28437570D01*
X7786706Y-28447079D01*
X7895669Y-28656395D01*
X7901163Y-28665120D01*
X8042854Y-28853835D01*
X8049697Y-28861542D01*
X8220310Y-29024584D01*
X8228316Y-29031067D01*
X8423274Y-29164057D01*
X8432226Y-29169143D01*
X8646285Y-29268506D01*
X8655945Y-29272060D01*
X8883369Y-29335130D01*
X8893473Y-29337057D01*
X9086102Y-29357644D01*
X9092794Y-29358000D01*
X9887885Y-29358000D01*
X9903124Y-29353525D01*
X9904329Y-29352135D01*
X9906000Y-29344452D01*
X9906000Y-29339885D01*
X10414000Y-29339885D01*
X10418475Y-29355124D01*
X10419865Y-29356329D01*
X10427548Y-29358000D01*
X11209857Y-29358000D01*
X11215030Y-29357788D01*
X11390350Y-29343374D01*
X11400512Y-29341691D01*
X11629396Y-29284200D01*
X11639151Y-29280879D01*
X11855557Y-29186782D01*
X11864655Y-29181904D01*
X12062787Y-29053727D01*
X12070956Y-29047437D01*
X12245501Y-28888613D01*
X12249179Y-28884669D01*
X22722001Y-28884669D01*
X22722371Y-28891490D01*
X22727895Y-28942352D01*
X22731521Y-28957604D01*
X22776676Y-29078054D01*
X22785214Y-29093649D01*
X22861715Y-29195724D01*
X22874276Y-29208285D01*
X22976351Y-29284786D01*
X22991946Y-29293324D01*
X23112394Y-29338478D01*
X23127649Y-29342105D01*
X23178514Y-29347631D01*
X23185328Y-29348000D01*
X23857885Y-29348000D01*
X23873124Y-29343525D01*
X23874329Y-29342135D01*
X23876000Y-29334452D01*
X23876000Y-29329884D01*
X24384000Y-29329884D01*
X24388475Y-29345123D01*
X24389865Y-29346328D01*
X24397548Y-29347999D01*
X25074669Y-29347999D01*
X25081490Y-29347629D01*
X25132352Y-29342105D01*
X25147604Y-29338479D01*
X25268054Y-29293324D01*
X25283649Y-29284786D01*
X25385724Y-29208285D01*
X25398285Y-29195724D01*
X25474786Y-29093649D01*
X25483324Y-29078054D01*
X25528478Y-28957606D01*
X25532105Y-28942351D01*
X25537631Y-28891486D01*
X25538000Y-28884672D01*
X25538000Y-28212115D01*
X25533525Y-28196876D01*
X25532135Y-28195671D01*
X25524452Y-28194000D01*
X24402115Y-28194000D01*
X24386876Y-28198475D01*
X24385671Y-28199865D01*
X24384000Y-28207548D01*
X24384000Y-29329884D01*
X23876000Y-29329884D01*
X23876000Y-28212115D01*
X23871525Y-28196876D01*
X23870135Y-28195671D01*
X23862452Y-28194000D01*
X22740116Y-28194000D01*
X22724877Y-28198475D01*
X22723672Y-28199865D01*
X22722001Y-28207548D01*
X22722001Y-28884669D01*
X12249179Y-28884669D01*
X12252526Y-28881080D01*
X12398787Y-28695880D01*
X12404492Y-28687293D01*
X12518536Y-28480703D01*
X12522766Y-28471291D01*
X12601539Y-28248844D01*
X12604173Y-28238873D01*
X12623239Y-28131837D01*
X12621779Y-28118540D01*
X12607222Y-28114000D01*
X10432115Y-28114000D01*
X10416876Y-28118475D01*
X10415671Y-28119865D01*
X10414000Y-28127548D01*
X10414000Y-29339885D01*
X9906000Y-29339885D01*
X9906000Y-28132115D01*
X9901525Y-28116876D01*
X9900135Y-28115671D01*
X9892452Y-28114000D01*
X7711466Y-28114000D01*
X7698122Y-28117918D01*
X7696135Y-28132194D01*
X1000Y-28132194D01*
X1000Y-27588163D01*
X7696761Y-27588163D01*
X7698221Y-27601460D01*
X7712778Y-27606000D01*
X9887885Y-27606000D01*
X9903124Y-27601525D01*
X9904329Y-27600135D01*
X9906000Y-27592452D01*
X9906000Y-27587885D01*
X10414000Y-27587885D01*
X10418475Y-27603124D01*
X10419865Y-27604329D01*
X10427548Y-27606000D01*
X12608534Y-27606000D01*
X12621878Y-27602082D01*
X12623865Y-27587806D01*
X12612994Y-27516764D01*
X12610605Y-27506737D01*
X12537291Y-27282430D01*
X12533294Y-27272921D01*
X12424331Y-27063605D01*
X12418837Y-27054880D01*
X12277146Y-26866165D01*
X12270303Y-26858458D01*
X12099690Y-26695416D01*
X12091684Y-26688933D01*
X11896726Y-26555943D01*
X11887774Y-26550857D01*
X11673715Y-26451494D01*
X11664055Y-26447940D01*
X11436631Y-26384870D01*
X11426527Y-26382943D01*
X11233898Y-26362356D01*
X11227206Y-26362000D01*
X10432115Y-26362000D01*
X10416876Y-26366475D01*
X10415671Y-26367865D01*
X10414000Y-26375548D01*
X10414000Y-27587885D01*
X9906000Y-27587885D01*
X9906000Y-26380115D01*
X9901525Y-26364876D01*
X9900135Y-26363671D01*
X9892452Y-26362000D01*
X9110143Y-26362000D01*
X9104970Y-26362212D01*
X8929650Y-26376626D01*
X8919488Y-26378309D01*
X8690604Y-26435800D01*
X8680849Y-26439121D01*
X8464443Y-26533218D01*
X8455345Y-26538096D01*
X8257213Y-26666273D01*
X8249044Y-26672563D01*
X8074499Y-26831387D01*
X8067474Y-26838920D01*
X7921213Y-27024120D01*
X7915508Y-27032707D01*
X7801464Y-27239297D01*
X7797234Y-27248709D01*
X7718461Y-27471156D01*
X7715827Y-27481127D01*
X7696761Y-27588163D01*
X1000Y-27588163D01*
X1000Y-15240000D01*
X3774532Y-15240000D01*
X3794365Y-15466692D01*
X3853261Y-15686496D01*
X3949432Y-15892734D01*
X4079953Y-16079139D01*
X4240861Y-16240047D01*
X4245364Y-16243200D01*
X4275770Y-16264490D01*
X4320099Y-16319947D01*
X4329500Y-16367704D01*
X4329500Y-17713546D01*
X4328067Y-17732496D01*
X4324852Y-17753630D01*
X4325445Y-17760922D01*
X4325445Y-17760925D01*
X4329085Y-17805675D01*
X4329500Y-17815889D01*
X4329500Y-17823822D01*
X4329925Y-17827466D01*
X4332754Y-17851736D01*
X4333187Y-17856111D01*
X4339039Y-17928059D01*
X4341294Y-17935021D01*
X4342452Y-17940816D01*
X4343809Y-17946558D01*
X4344657Y-17953828D01*
X4369306Y-18021736D01*
X4370723Y-18025864D01*
X4379826Y-18053962D01*
X4392973Y-18094546D01*
X4396768Y-18100800D01*
X4399231Y-18106179D01*
X4401873Y-18111455D01*
X4404369Y-18118331D01*
X4420580Y-18143057D01*
X4443948Y-18178699D01*
X4446295Y-18182419D01*
X4480848Y-18239361D01*
X4480853Y-18239368D01*
X4483761Y-18244160D01*
X4487473Y-18248362D01*
X4487474Y-18248364D01*
X4491085Y-18252452D01*
X4491060Y-18252474D01*
X4493806Y-18255569D01*
X4496309Y-18258563D01*
X4500323Y-18264685D01*
X4505636Y-18269718D01*
X4555951Y-18317382D01*
X4558393Y-18319760D01*
X7716395Y-21477763D01*
X7750421Y-21540075D01*
X7745356Y-21610891D01*
X7740153Y-21622267D01*
X7736474Y-21627176D01*
X7733324Y-21635580D01*
X7733322Y-21635583D01*
X7714776Y-21685055D01*
X7686149Y-21761420D01*
X7685296Y-21769270D01*
X7685296Y-21769271D01*
X7684499Y-21776608D01*
X7679500Y-21822623D01*
X7679501Y-23897376D01*
X7679870Y-23900770D01*
X7679870Y-23900776D01*
X7685229Y-23950108D01*
X7686149Y-23958580D01*
X7736474Y-24092824D01*
X7741854Y-24100003D01*
X7741856Y-24100006D01*
X7817072Y-24200365D01*
X7822454Y-24207546D01*
X7829635Y-24212928D01*
X7929994Y-24288144D01*
X7929997Y-24288146D01*
X7937176Y-24293526D01*
X8026561Y-24327034D01*
X8064025Y-24341079D01*
X8064027Y-24341079D01*
X8071420Y-24343851D01*
X8079270Y-24344704D01*
X8079271Y-24344704D01*
X8129217Y-24350130D01*
X8132623Y-24350500D01*
X10159703Y-24350500D01*
X12187376Y-24350499D01*
X12190770Y-24350130D01*
X12190776Y-24350130D01*
X12240722Y-24344705D01*
X12240726Y-24344704D01*
X12248580Y-24343851D01*
X12382824Y-24293526D01*
X12390003Y-24288146D01*
X12390006Y-24288144D01*
X12490365Y-24212928D01*
X12497546Y-24207546D01*
X12502928Y-24200365D01*
X12578144Y-24100006D01*
X12578146Y-24100003D01*
X12583526Y-24092824D01*
X12623752Y-23985520D01*
X12631079Y-23965975D01*
X12631079Y-23965973D01*
X12633851Y-23958580D01*
X12635082Y-23947254D01*
X12640131Y-23900774D01*
X12640131Y-23900773D01*
X12640500Y-23897377D01*
X12640499Y-21822624D01*
X12635501Y-21776608D01*
X12634705Y-21769278D01*
X12634704Y-21769274D01*
X12633851Y-21761420D01*
X12583526Y-21627176D01*
X12578146Y-21619997D01*
X12578144Y-21619994D01*
X12502928Y-21519635D01*
X12497546Y-21512454D01*
X12489915Y-21506735D01*
X12390006Y-21431856D01*
X12390003Y-21431854D01*
X12382824Y-21426474D01*
X12293439Y-21392966D01*
X12255975Y-21378921D01*
X12255973Y-21378921D01*
X12248580Y-21376149D01*
X12240730Y-21375296D01*
X12240729Y-21375296D01*
X12190774Y-21369869D01*
X12190773Y-21369869D01*
X12187377Y-21369500D01*
X12036427Y-21369500D01*
X9783058Y-21369501D01*
X9714937Y-21349499D01*
X9693963Y-21332596D01*
X5867405Y-17506038D01*
X5833379Y-17443726D01*
X5830500Y-17416943D01*
X5830500Y-16367704D01*
X5850502Y-16299583D01*
X5884230Y-16264490D01*
X5914636Y-16243200D01*
X5919139Y-16240047D01*
X6080047Y-16079139D01*
X6210568Y-15892734D01*
X6306739Y-15686496D01*
X6365635Y-15466692D01*
X6385468Y-15240000D01*
X13934532Y-15240000D01*
X13954365Y-15466692D01*
X14013261Y-15686496D01*
X14109432Y-15892734D01*
X14239953Y-16079139D01*
X14400861Y-16240047D01*
X14405364Y-16243200D01*
X14435770Y-16264490D01*
X14480099Y-16319947D01*
X14489500Y-16367704D01*
X14489500Y-16443546D01*
X14488067Y-16462496D01*
X14487422Y-16466739D01*
X14484852Y-16483630D01*
X14485445Y-16490922D01*
X14485445Y-16490925D01*
X14489085Y-16535675D01*
X14489500Y-16545889D01*
X14489500Y-16553822D01*
X14489925Y-16557466D01*
X14492754Y-16581736D01*
X14493187Y-16586111D01*
X14499039Y-16658059D01*
X14501294Y-16665021D01*
X14502452Y-16670816D01*
X14503809Y-16676558D01*
X14504657Y-16683828D01*
X14529306Y-16751736D01*
X14530723Y-16755864D01*
X14552973Y-16824546D01*
X14556768Y-16830800D01*
X14559231Y-16836179D01*
X14561873Y-16841455D01*
X14564369Y-16848331D01*
X14603948Y-16908699D01*
X14606295Y-16912419D01*
X14640848Y-16969361D01*
X14640853Y-16969368D01*
X14643761Y-16974160D01*
X14647473Y-16978362D01*
X14647474Y-16978364D01*
X14651085Y-16982452D01*
X14651060Y-16982474D01*
X14653806Y-16985569D01*
X14656309Y-16988563D01*
X14660323Y-16994685D01*
X14665636Y-16999718D01*
X14715952Y-17047383D01*
X14718394Y-17049761D01*
X22712378Y-25043746D01*
X22746404Y-25106058D01*
X22748570Y-25146230D01*
X22725667Y-25360532D01*
X22725667Y-25360539D01*
X22725119Y-25365665D01*
X22725416Y-25370817D01*
X22725416Y-25370821D01*
X22730864Y-25465296D01*
X22738376Y-25595580D01*
X22739513Y-25600626D01*
X22739514Y-25600632D01*
X22761226Y-25696975D01*
X22789006Y-25820242D01*
X22790948Y-25825024D01*
X22790949Y-25825028D01*
X22828427Y-25917325D01*
X22875649Y-26033618D01*
X22995979Y-26229978D01*
X22999356Y-26233876D01*
X22999360Y-26233882D01*
X23062356Y-26306606D01*
X23103733Y-26354372D01*
X23109643Y-26361195D01*
X23139126Y-26425781D01*
X23129011Y-26496053D01*
X23082510Y-26549702D01*
X23058636Y-26561675D01*
X22991946Y-26586676D01*
X22976351Y-26595214D01*
X22874276Y-26671715D01*
X22861715Y-26684276D01*
X22785214Y-26786351D01*
X22776676Y-26801946D01*
X22731522Y-26922394D01*
X22727895Y-26937649D01*
X22722369Y-26988514D01*
X22722000Y-26995328D01*
X22722000Y-27667885D01*
X22726475Y-27683124D01*
X22727865Y-27684329D01*
X22735548Y-27686000D01*
X25519884Y-27686000D01*
X25535123Y-27681525D01*
X25536328Y-27680135D01*
X25537999Y-27672452D01*
X25537999Y-26995331D01*
X25537629Y-26988510D01*
X25532105Y-26937648D01*
X25528479Y-26922396D01*
X25483324Y-26801946D01*
X25474786Y-26786351D01*
X25398285Y-26684276D01*
X25385724Y-26671715D01*
X25283649Y-26595214D01*
X25268054Y-26586676D01*
X25201178Y-26561605D01*
X25144414Y-26518963D01*
X25119714Y-26452402D01*
X25134922Y-26383053D01*
X25156469Y-26354372D01*
X25196524Y-26314458D01*
X25196534Y-26314446D01*
X25200190Y-26310803D01*
X25258269Y-26229978D01*
X25331559Y-26127983D01*
X25334577Y-26123783D01*
X25436615Y-25917325D01*
X25467643Y-25815200D01*
X25502059Y-25701927D01*
X25502060Y-25701921D01*
X25503563Y-25696975D01*
X25533622Y-25468649D01*
X25535300Y-25400000D01*
X25516430Y-25170478D01*
X25515171Y-25165465D01*
X25515168Y-25165448D01*
X25514651Y-25163390D01*
X25514685Y-25162531D01*
X25514325Y-25160356D01*
X25514774Y-25160282D01*
X25517458Y-25092449D01*
X25547761Y-25043606D01*
X26943962Y-23647405D01*
X27006274Y-23613379D01*
X27033057Y-23610500D01*
X31105380Y-23610500D01*
X31173501Y-23630502D01*
X31203023Y-23656864D01*
X31324919Y-23806324D01*
X31324922Y-23806327D01*
X31328814Y-23811099D01*
X31333561Y-23815026D01*
X31333563Y-23815028D01*
X31479023Y-23935363D01*
X31479026Y-23935365D01*
X31483773Y-23939292D01*
X31660680Y-24034945D01*
X31720706Y-24053526D01*
X31846910Y-24092593D01*
X31846913Y-24092594D01*
X31852797Y-24094415D01*
X31858922Y-24095059D01*
X31858923Y-24095059D01*
X32046678Y-24114793D01*
X32046679Y-24114793D01*
X32052806Y-24115437D01*
X32136944Y-24107780D01*
X32246950Y-24097769D01*
X32246953Y-24097768D01*
X32253089Y-24097210D01*
X32258995Y-24095472D01*
X32258999Y-24095471D01*
X32440109Y-24042167D01*
X32440108Y-24042167D01*
X32446018Y-24040428D01*
X32599164Y-23960365D01*
X32618784Y-23950108D01*
X32618785Y-23950108D01*
X32624243Y-23947254D01*
X32780976Y-23821237D01*
X32910248Y-23667177D01*
X32913212Y-23661785D01*
X32913215Y-23661781D01*
X33004168Y-23496337D01*
X33007134Y-23490942D01*
X33009616Y-23483120D01*
X33055267Y-23339208D01*
X33094930Y-23280324D01*
X33160133Y-23252232D01*
X33230172Y-23263849D01*
X33282812Y-23311489D01*
X33295991Y-23340889D01*
X33337290Y-23477679D01*
X33340183Y-23483120D01*
X33418548Y-23630502D01*
X33431706Y-23655249D01*
X33445282Y-23671895D01*
X33554919Y-23806324D01*
X33554922Y-23806327D01*
X33558814Y-23811099D01*
X33563561Y-23815026D01*
X33563563Y-23815028D01*
X33709023Y-23935363D01*
X33709026Y-23935365D01*
X33713773Y-23939292D01*
X33890680Y-24034945D01*
X33950706Y-24053526D01*
X34076910Y-24092593D01*
X34076913Y-24092594D01*
X34082797Y-24094415D01*
X34088922Y-24095059D01*
X34088923Y-24095059D01*
X34276678Y-24114793D01*
X34276679Y-24114793D01*
X34282806Y-24115437D01*
X34366944Y-24107780D01*
X34476950Y-24097769D01*
X34476953Y-24097768D01*
X34483089Y-24097210D01*
X34488995Y-24095472D01*
X34488999Y-24095471D01*
X34670109Y-24042167D01*
X34670108Y-24042167D01*
X34676018Y-24040428D01*
X34829164Y-23960365D01*
X34848784Y-23950108D01*
X34848785Y-23950108D01*
X34854243Y-23947254D01*
X35010976Y-23821237D01*
X35140248Y-23667177D01*
X35143212Y-23661785D01*
X35143215Y-23661781D01*
X35234168Y-23496337D01*
X35237134Y-23490942D01*
X35239616Y-23483120D01*
X35288399Y-23329335D01*
X35328063Y-23270451D01*
X35393265Y-23242359D01*
X35463304Y-23253977D01*
X35515944Y-23301616D01*
X35534501Y-23367433D01*
X35534501Y-23657376D01*
X35534870Y-23660770D01*
X35534870Y-23660776D01*
X35535566Y-23667177D01*
X35541149Y-23718580D01*
X35591474Y-23852824D01*
X35596854Y-23860003D01*
X35596856Y-23860006D01*
X35658475Y-23942223D01*
X35677454Y-23967546D01*
X35684635Y-23972928D01*
X35784994Y-24048144D01*
X35784997Y-24048146D01*
X35792176Y-24053526D01*
X35874587Y-24084420D01*
X35919025Y-24101079D01*
X35919027Y-24101079D01*
X35926420Y-24103851D01*
X35934270Y-24104704D01*
X35934271Y-24104704D01*
X35969020Y-24108479D01*
X35987623Y-24110500D01*
X36559916Y-24110500D01*
X37132376Y-24110499D01*
X37135770Y-24110130D01*
X37135776Y-24110130D01*
X37185722Y-24104705D01*
X37185726Y-24104704D01*
X37193580Y-24103851D01*
X37327824Y-24053526D01*
X37335003Y-24048146D01*
X37335006Y-24048144D01*
X37435365Y-23972928D01*
X37442546Y-23967546D01*
X37461525Y-23942223D01*
X37523144Y-23860006D01*
X37523146Y-23860003D01*
X37528526Y-23852824D01*
X37557350Y-23775936D01*
X37576078Y-23725978D01*
X37576079Y-23725976D01*
X37578851Y-23718580D01*
X37579705Y-23710722D01*
X37580507Y-23707351D01*
X37615725Y-23645706D01*
X37678681Y-23612887D01*
X37703089Y-23610500D01*
X39995380Y-23610500D01*
X40063501Y-23630502D01*
X40093023Y-23656864D01*
X40214919Y-23806324D01*
X40214922Y-23806327D01*
X40218814Y-23811099D01*
X40223561Y-23815026D01*
X40223563Y-23815028D01*
X40369023Y-23935363D01*
X40369026Y-23935365D01*
X40373773Y-23939292D01*
X40550680Y-24034945D01*
X40610706Y-24053526D01*
X40736910Y-24092593D01*
X40736913Y-24092594D01*
X40742797Y-24094415D01*
X40748922Y-24095059D01*
X40748923Y-24095059D01*
X40936678Y-24114793D01*
X40936679Y-24114793D01*
X40942806Y-24115437D01*
X41026944Y-24107780D01*
X41136950Y-24097769D01*
X41136953Y-24097768D01*
X41143089Y-24097210D01*
X41148995Y-24095472D01*
X41148999Y-24095471D01*
X41330109Y-24042167D01*
X41330108Y-24042167D01*
X41336018Y-24040428D01*
X41489164Y-23960365D01*
X41508784Y-23950108D01*
X41508785Y-23950108D01*
X41514243Y-23947254D01*
X41670976Y-23821237D01*
X41800248Y-23667177D01*
X41803212Y-23661785D01*
X41803215Y-23661781D01*
X41894168Y-23496337D01*
X41897134Y-23490942D01*
X41899616Y-23483120D01*
X41945267Y-23339208D01*
X41984930Y-23280324D01*
X42050133Y-23252232D01*
X42120172Y-23263849D01*
X42172812Y-23311489D01*
X42185991Y-23340889D01*
X42227290Y-23477679D01*
X42230183Y-23483120D01*
X42308548Y-23630502D01*
X42321706Y-23655249D01*
X42335282Y-23671895D01*
X42444919Y-23806324D01*
X42444922Y-23806327D01*
X42448814Y-23811099D01*
X42453561Y-23815026D01*
X42453563Y-23815028D01*
X42599023Y-23935363D01*
X42599026Y-23935365D01*
X42603773Y-23939292D01*
X42780680Y-24034945D01*
X42840706Y-24053526D01*
X42966910Y-24092593D01*
X42966913Y-24092594D01*
X42972797Y-24094415D01*
X42978922Y-24095059D01*
X42978923Y-24095059D01*
X43166678Y-24114793D01*
X43166679Y-24114793D01*
X43172806Y-24115437D01*
X43256944Y-24107780D01*
X43366950Y-24097769D01*
X43366953Y-24097768D01*
X43373089Y-24097210D01*
X43378995Y-24095472D01*
X43378999Y-24095471D01*
X43560109Y-24042167D01*
X43560108Y-24042167D01*
X43566018Y-24040428D01*
X43719164Y-23960365D01*
X43738784Y-23950108D01*
X43738785Y-23950108D01*
X43744243Y-23947254D01*
X43900976Y-23821237D01*
X44030248Y-23667177D01*
X44033212Y-23661785D01*
X44033215Y-23661781D01*
X44124168Y-23496337D01*
X44127134Y-23490942D01*
X44129616Y-23483120D01*
X44170899Y-23352978D01*
X44210563Y-23294094D01*
X44275765Y-23266002D01*
X44345804Y-23277620D01*
X44398444Y-23325259D01*
X44417001Y-23391077D01*
X44417001Y-23654669D01*
X44417371Y-23661490D01*
X44422895Y-23712352D01*
X44426521Y-23727604D01*
X44471676Y-23848054D01*
X44480214Y-23863649D01*
X44556715Y-23965724D01*
X44569276Y-23978285D01*
X44671351Y-24054786D01*
X44686946Y-24063324D01*
X44807394Y-24108478D01*
X44822649Y-24112105D01*
X44873514Y-24117631D01*
X44880328Y-24118000D01*
X45177885Y-24118000D01*
X45193124Y-24113525D01*
X45194329Y-24112135D01*
X45196000Y-24104452D01*
X45196000Y-24099884D01*
X45704000Y-24099884D01*
X45708475Y-24115123D01*
X45709865Y-24116328D01*
X45717548Y-24117999D01*
X46019669Y-24117999D01*
X46026490Y-24117629D01*
X46077352Y-24112105D01*
X46092604Y-24108479D01*
X46213054Y-24063324D01*
X46228649Y-24054786D01*
X46330724Y-23978285D01*
X46343285Y-23965724D01*
X46419786Y-23863649D01*
X46428324Y-23848054D01*
X46473478Y-23727606D01*
X46477105Y-23712351D01*
X46482631Y-23661486D01*
X46483000Y-23654672D01*
X46483000Y-23132115D01*
X46478525Y-23116876D01*
X46477135Y-23115671D01*
X46469452Y-23114000D01*
X45722115Y-23114000D01*
X45706876Y-23118475D01*
X45705671Y-23119865D01*
X45704000Y-23127548D01*
X45704000Y-24099884D01*
X45196000Y-24099884D01*
X45196000Y-22587885D01*
X45704000Y-22587885D01*
X45708475Y-22603124D01*
X45709865Y-22604329D01*
X45717548Y-22606000D01*
X46464884Y-22606000D01*
X46480123Y-22601525D01*
X46481328Y-22600135D01*
X46482999Y-22592452D01*
X46482999Y-22065331D01*
X46482629Y-22058510D01*
X46477105Y-22007648D01*
X46473479Y-21992396D01*
X46428324Y-21871946D01*
X46419786Y-21856351D01*
X46343285Y-21754276D01*
X46330724Y-21741715D01*
X46228649Y-21665214D01*
X46213054Y-21656676D01*
X46092606Y-21611522D01*
X46077351Y-21607895D01*
X46026486Y-21602369D01*
X46019672Y-21602000D01*
X45722115Y-21602000D01*
X45706876Y-21606475D01*
X45705671Y-21607865D01*
X45704000Y-21615548D01*
X45704000Y-22587885D01*
X45196000Y-22587885D01*
X45196000Y-21620116D01*
X45191525Y-21604877D01*
X45190135Y-21603672D01*
X45182452Y-21602001D01*
X44880331Y-21602001D01*
X44873510Y-21602371D01*
X44822648Y-21607895D01*
X44807396Y-21611521D01*
X44686946Y-21656676D01*
X44671351Y-21665214D01*
X44569276Y-21741715D01*
X44556715Y-21754276D01*
X44480214Y-21856351D01*
X44471676Y-21871946D01*
X44426522Y-21992394D01*
X44422895Y-22007649D01*
X44417369Y-22058514D01*
X44417000Y-22065328D01*
X44417000Y-22330667D01*
X44396998Y-22398788D01*
X44343342Y-22445281D01*
X44273068Y-22455385D01*
X44208488Y-22425891D01*
X44170378Y-22367085D01*
X44161345Y-22337167D01*
X44132710Y-22242321D01*
X44122789Y-22223663D01*
X44041190Y-22070197D01*
X44041189Y-22070195D01*
X44038294Y-22064751D01*
X44034394Y-22059970D01*
X44034392Y-22059966D01*
X43958857Y-21967350D01*
X43931303Y-21901919D01*
X43930500Y-21887715D01*
X43930500Y-18143057D01*
X43950502Y-18074936D01*
X43967405Y-18053962D01*
X45453990Y-16567377D01*
X45516302Y-16533351D01*
X45554066Y-16530951D01*
X45714524Y-16544989D01*
X45714525Y-16544989D01*
X45720000Y-16545468D01*
X45946692Y-16525635D01*
X45952005Y-16524211D01*
X45952007Y-16524211D01*
X46161186Y-16468162D01*
X46161188Y-16468161D01*
X46166496Y-16466739D01*
X46175595Y-16462496D01*
X46367753Y-16372891D01*
X46367756Y-16372889D01*
X46372734Y-16370568D01*
X46559139Y-16240047D01*
X46720047Y-16079139D01*
X46850568Y-15892734D01*
X46946739Y-15686496D01*
X47005635Y-15466692D01*
X47025468Y-15240000D01*
X47005635Y-15013308D01*
X46989965Y-14954826D01*
X46948162Y-14798814D01*
X46948161Y-14798812D01*
X46946739Y-14793504D01*
X46935083Y-14768507D01*
X46852891Y-14592247D01*
X46852889Y-14592244D01*
X46850568Y-14587266D01*
X46720047Y-14400861D01*
X46559139Y-14239953D01*
X46372734Y-14109432D01*
X46367756Y-14107111D01*
X46367753Y-14107109D01*
X46171478Y-14015584D01*
X46171476Y-14015583D01*
X46166496Y-14013261D01*
X46161188Y-14011839D01*
X46161186Y-14011838D01*
X45952007Y-13955789D01*
X45952005Y-13955789D01*
X45946692Y-13954365D01*
X45720000Y-13934532D01*
X45493308Y-13954365D01*
X45487995Y-13955789D01*
X45487993Y-13955789D01*
X45278814Y-14011838D01*
X45278812Y-14011839D01*
X45273504Y-14013261D01*
X45268524Y-14015583D01*
X45268522Y-14015584D01*
X45072247Y-14107109D01*
X45072244Y-14107111D01*
X45067266Y-14109432D01*
X44880861Y-14239953D01*
X44719953Y-14400861D01*
X44589432Y-14587266D01*
X44587111Y-14592244D01*
X44587109Y-14592247D01*
X44504917Y-14768507D01*
X44493261Y-14793504D01*
X44491839Y-14798812D01*
X44491838Y-14798814D01*
X44450035Y-14954826D01*
X44434365Y-15013308D01*
X44414532Y-15240000D01*
X44415011Y-15245475D01*
X44415011Y-15245476D01*
X44429049Y-15405934D01*
X44415060Y-15475538D01*
X44392623Y-15506010D01*
X42696311Y-17202322D01*
X42681898Y-17214709D01*
X42670575Y-17223041D01*
X42670571Y-17223045D01*
X42664676Y-17227383D01*
X42630849Y-17267200D01*
X42623929Y-17274704D01*
X42618330Y-17280303D01*
X42600886Y-17302351D01*
X42598117Y-17305727D01*
X42556108Y-17355175D01*
X42556106Y-17355178D01*
X42551368Y-17360755D01*
X42548040Y-17367274D01*
X42544765Y-17372184D01*
X42541664Y-17377204D01*
X42537119Y-17382949D01*
X42534017Y-17389587D01*
X42534016Y-17389588D01*
X42506556Y-17448343D01*
X42504628Y-17452289D01*
X42471781Y-17516616D01*
X42470042Y-17523725D01*
X42467983Y-17529260D01*
X42466117Y-17534868D01*
X42463021Y-17541493D01*
X42461532Y-17548653D01*
X42461531Y-17548655D01*
X42448315Y-17612193D01*
X42447344Y-17616482D01*
X42430185Y-17686606D01*
X42429500Y-17697648D01*
X42429468Y-17697646D01*
X42429221Y-17701776D01*
X42428875Y-17705656D01*
X42427382Y-17712831D01*
X42427580Y-17720152D01*
X42427580Y-17720153D01*
X42429454Y-17789400D01*
X42429500Y-17792808D01*
X42429500Y-21888088D01*
X42409498Y-21956209D01*
X42400021Y-21969080D01*
X42333711Y-22048104D01*
X42333709Y-22048107D01*
X42329752Y-22052823D01*
X42326788Y-22058215D01*
X42326785Y-22058219D01*
X42293675Y-22118446D01*
X42232866Y-22229058D01*
X42231005Y-22234925D01*
X42231004Y-22234927D01*
X42184733Y-22380792D01*
X42145070Y-22439676D01*
X42079867Y-22467768D01*
X42009828Y-22456151D01*
X41957188Y-22408511D01*
X41944009Y-22379111D01*
X41911394Y-22271085D01*
X41902710Y-22242321D01*
X41892789Y-22223663D01*
X41811190Y-22070197D01*
X41811189Y-22070195D01*
X41808294Y-22064751D01*
X41728856Y-21967350D01*
X41685081Y-21913676D01*
X41685078Y-21913673D01*
X41681186Y-21908901D01*
X41674638Y-21903484D01*
X41530977Y-21784637D01*
X41530974Y-21784635D01*
X41526227Y-21780708D01*
X41349320Y-21685055D01*
X41250260Y-21654391D01*
X41163090Y-21627407D01*
X41163087Y-21627406D01*
X41157203Y-21625585D01*
X41151078Y-21624941D01*
X41151077Y-21624941D01*
X40963322Y-21605207D01*
X40963321Y-21605207D01*
X40957194Y-21604563D01*
X40880738Y-21611521D01*
X40763050Y-21622231D01*
X40763047Y-21622232D01*
X40756911Y-21622790D01*
X40751005Y-21624528D01*
X40751001Y-21624529D01*
X40641776Y-21656676D01*
X40563982Y-21679572D01*
X40474869Y-21726159D01*
X40392391Y-21769278D01*
X40385757Y-21772746D01*
X40229024Y-21898763D01*
X40099752Y-22052823D01*
X40098340Y-22055391D01*
X40044217Y-22099592D01*
X39995241Y-22109500D01*
X37703088Y-22109500D01*
X37634967Y-22089498D01*
X37588474Y-22035842D01*
X37580505Y-22012644D01*
X37579704Y-22009277D01*
X37578851Y-22001420D01*
X37528526Y-21867176D01*
X37523146Y-21859997D01*
X37523144Y-21859994D01*
X37447928Y-21759635D01*
X37442546Y-21752454D01*
X37428217Y-21741715D01*
X37335006Y-21671856D01*
X37335003Y-21671854D01*
X37327824Y-21666474D01*
X37223611Y-21627407D01*
X37200975Y-21618921D01*
X37200973Y-21618921D01*
X37193580Y-21616149D01*
X37185730Y-21615296D01*
X37185729Y-21615296D01*
X37135774Y-21609869D01*
X37135773Y-21609869D01*
X37132377Y-21609500D01*
X36560084Y-21609500D01*
X35987624Y-21609501D01*
X35984230Y-21609870D01*
X35984224Y-21609870D01*
X35934278Y-21615295D01*
X35934274Y-21615296D01*
X35926420Y-21616149D01*
X35792176Y-21666474D01*
X35784997Y-21671854D01*
X35784994Y-21671856D01*
X35691783Y-21741715D01*
X35677454Y-21752454D01*
X35672072Y-21759635D01*
X35596856Y-21859994D01*
X35596854Y-21859997D01*
X35591474Y-21867176D01*
X35574042Y-21913676D01*
X35544533Y-21992394D01*
X35541149Y-22001420D01*
X35534500Y-22062623D01*
X35534500Y-22355509D01*
X35514498Y-22423630D01*
X35460842Y-22470123D01*
X35390568Y-22480227D01*
X35325988Y-22450733D01*
X35287878Y-22391926D01*
X35244492Y-22248224D01*
X35244491Y-22248221D01*
X35242710Y-22242321D01*
X35232789Y-22223663D01*
X35151190Y-22070197D01*
X35151189Y-22070195D01*
X35148294Y-22064751D01*
X35068856Y-21967350D01*
X35025081Y-21913676D01*
X35025078Y-21913673D01*
X35021186Y-21908901D01*
X35014638Y-21903484D01*
X34870977Y-21784637D01*
X34870974Y-21784635D01*
X34866227Y-21780708D01*
X34689320Y-21685055D01*
X34590260Y-21654391D01*
X34503090Y-21627407D01*
X34503087Y-21627406D01*
X34497203Y-21625585D01*
X34491078Y-21624941D01*
X34491077Y-21624941D01*
X34303322Y-21605207D01*
X34303321Y-21605207D01*
X34297194Y-21604563D01*
X34171498Y-21616002D01*
X34101845Y-21602257D01*
X34070984Y-21579616D01*
X31267405Y-18776038D01*
X31233379Y-18713726D01*
X31230500Y-18686943D01*
X31230500Y-16367704D01*
X31250502Y-16299583D01*
X31284230Y-16264490D01*
X31314636Y-16243200D01*
X31319139Y-16240047D01*
X31480047Y-16079139D01*
X31610568Y-15892734D01*
X31706739Y-15686496D01*
X31765635Y-15466692D01*
X31785468Y-15240000D01*
X31765635Y-15013308D01*
X31749965Y-14954826D01*
X31708162Y-14798814D01*
X31708161Y-14798812D01*
X31706739Y-14793504D01*
X31695083Y-14768507D01*
X31612891Y-14592247D01*
X31612889Y-14592244D01*
X31610568Y-14587266D01*
X31480047Y-14400861D01*
X31319139Y-14239953D01*
X31132734Y-14109432D01*
X31127756Y-14107111D01*
X31127753Y-14107109D01*
X30931478Y-14015584D01*
X30931476Y-14015583D01*
X30926496Y-14013261D01*
X30921188Y-14011839D01*
X30921186Y-14011838D01*
X30712007Y-13955789D01*
X30712005Y-13955789D01*
X30706692Y-13954365D01*
X30480000Y-13934532D01*
X30253308Y-13954365D01*
X30247995Y-13955789D01*
X30247993Y-13955789D01*
X30038814Y-14011838D01*
X30038812Y-14011839D01*
X30033504Y-14013261D01*
X30028524Y-14015583D01*
X30028522Y-14015584D01*
X29832247Y-14107109D01*
X29832244Y-14107111D01*
X29827266Y-14109432D01*
X29640861Y-14239953D01*
X29479953Y-14400861D01*
X29349432Y-14587266D01*
X29347111Y-14592244D01*
X29347109Y-14592247D01*
X29264917Y-14768507D01*
X29253261Y-14793504D01*
X29251839Y-14798812D01*
X29251838Y-14798814D01*
X29210035Y-14954826D01*
X29194365Y-15013308D01*
X29174532Y-15240000D01*
X29194365Y-15466692D01*
X29253261Y-15686496D01*
X29349432Y-15892734D01*
X29479953Y-16079139D01*
X29640861Y-16240047D01*
X29645364Y-16243200D01*
X29675770Y-16264490D01*
X29720099Y-16319947D01*
X29729500Y-16367704D01*
X29729500Y-18983546D01*
X29728067Y-19002496D01*
X29724852Y-19023630D01*
X29725445Y-19030922D01*
X29725445Y-19030925D01*
X29729085Y-19075675D01*
X29729500Y-19085889D01*
X29729500Y-19093822D01*
X29729925Y-19097466D01*
X29732754Y-19121736D01*
X29733187Y-19126111D01*
X29739039Y-19198059D01*
X29741294Y-19205021D01*
X29742452Y-19210816D01*
X29743809Y-19216558D01*
X29744657Y-19223828D01*
X29769306Y-19291736D01*
X29770723Y-19295864D01*
X29792973Y-19364546D01*
X29796768Y-19370800D01*
X29799231Y-19376179D01*
X29801873Y-19381455D01*
X29804369Y-19388331D01*
X29843948Y-19448699D01*
X29846295Y-19452419D01*
X29880848Y-19509361D01*
X29880853Y-19509368D01*
X29883761Y-19514160D01*
X29887473Y-19518362D01*
X29887474Y-19518364D01*
X29891085Y-19522452D01*
X29891060Y-19522474D01*
X29893806Y-19525569D01*
X29896309Y-19528563D01*
X29900323Y-19534685D01*
X29905636Y-19539718D01*
X29955951Y-19587382D01*
X29958393Y-19589760D01*
X31813055Y-21444423D01*
X31847081Y-21506735D01*
X31842016Y-21577551D01*
X31799469Y-21634386D01*
X31759536Y-21654391D01*
X31679898Y-21677830D01*
X31679890Y-21677833D01*
X31673982Y-21679572D01*
X31584869Y-21726159D01*
X31502391Y-21769278D01*
X31495757Y-21772746D01*
X31339024Y-21898763D01*
X31209752Y-22052823D01*
X31208340Y-22055391D01*
X31154217Y-22099592D01*
X31105241Y-22109500D01*
X26736454Y-22109500D01*
X26717504Y-22108067D01*
X26703604Y-22105952D01*
X26703600Y-22105952D01*
X26696370Y-22104852D01*
X26689078Y-22105445D01*
X26689075Y-22105445D01*
X26644325Y-22109085D01*
X26634111Y-22109500D01*
X26626178Y-22109500D01*
X26616882Y-22110584D01*
X26598264Y-22112754D01*
X26593889Y-22113187D01*
X26563726Y-22115640D01*
X26521941Y-22119039D01*
X26514979Y-22121294D01*
X26509184Y-22122452D01*
X26503442Y-22123809D01*
X26496172Y-22124657D01*
X26428264Y-22149306D01*
X26424136Y-22150723D01*
X26362417Y-22170717D01*
X26362415Y-22170718D01*
X26355454Y-22172973D01*
X26349200Y-22176768D01*
X26343821Y-22179231D01*
X26338545Y-22181873D01*
X26331669Y-22184369D01*
X26280089Y-22218186D01*
X26271267Y-22223970D01*
X26267554Y-22226312D01*
X26205840Y-22263762D01*
X26201641Y-22267470D01*
X26201636Y-22267474D01*
X26197548Y-22271085D01*
X26197526Y-22271060D01*
X26194435Y-22273803D01*
X26191439Y-22276308D01*
X26185315Y-22280323D01*
X26180281Y-22285637D01*
X26132617Y-22335952D01*
X26130239Y-22338394D01*
X24483113Y-23985520D01*
X24420801Y-24019546D01*
X24371926Y-24020473D01*
X24262250Y-24000937D01*
X24175802Y-23999881D01*
X24037141Y-23998186D01*
X24037139Y-23998186D01*
X24031971Y-23998123D01*
X23884721Y-24020656D01*
X23814360Y-24011189D01*
X23776568Y-23985201D01*
X16144372Y-16353005D01*
X16110346Y-16290693D01*
X16115411Y-16219878D01*
X16144371Y-16174815D01*
X16240047Y-16079139D01*
X16370568Y-15892734D01*
X16466739Y-15686496D01*
X16525635Y-15466692D01*
X16545468Y-15240000D01*
X16525635Y-15013308D01*
X16509965Y-14954826D01*
X16468162Y-14798814D01*
X16468161Y-14798812D01*
X16466739Y-14793504D01*
X16455083Y-14768507D01*
X16372891Y-14592247D01*
X16372889Y-14592244D01*
X16370568Y-14587266D01*
X16240047Y-14400861D01*
X16079139Y-14239953D01*
X15892734Y-14109432D01*
X15887756Y-14107111D01*
X15887753Y-14107109D01*
X15691478Y-14015584D01*
X15691476Y-14015583D01*
X15686496Y-14013261D01*
X15681188Y-14011839D01*
X15681186Y-14011838D01*
X15472007Y-13955789D01*
X15472005Y-13955789D01*
X15466692Y-13954365D01*
X15240000Y-13934532D01*
X15013308Y-13954365D01*
X15007995Y-13955789D01*
X15007993Y-13955789D01*
X14798814Y-14011838D01*
X14798812Y-14011839D01*
X14793504Y-14013261D01*
X14788524Y-14015583D01*
X14788522Y-14015584D01*
X14592247Y-14107109D01*
X14592244Y-14107111D01*
X14587266Y-14109432D01*
X14400861Y-14239953D01*
X14239953Y-14400861D01*
X14109432Y-14587266D01*
X14107111Y-14592244D01*
X14107109Y-14592247D01*
X14024917Y-14768507D01*
X14013261Y-14793504D01*
X14011839Y-14798812D01*
X14011838Y-14798814D01*
X13970035Y-14954826D01*
X13954365Y-15013308D01*
X13934532Y-15240000D01*
X6385468Y-15240000D01*
X6365635Y-15013308D01*
X6349965Y-14954826D01*
X6308162Y-14798814D01*
X6308161Y-14798812D01*
X6306739Y-14793504D01*
X6295083Y-14768507D01*
X6212891Y-14592247D01*
X6212889Y-14592244D01*
X6210568Y-14587266D01*
X6080047Y-14400861D01*
X5919139Y-14239953D01*
X5884230Y-14215509D01*
X5839901Y-14160053D01*
X5830500Y-14112296D01*
X5830500Y-13913057D01*
X5850502Y-13844936D01*
X5867405Y-13823962D01*
X11128153Y-8563214D01*
X13024806Y-8563214D01*
X13039010Y-8809545D01*
X13040147Y-8814591D01*
X13040148Y-8814597D01*
X13062336Y-8913051D01*
X13093255Y-9050249D01*
X13186084Y-9278861D01*
X13315006Y-9489241D01*
X13476557Y-9675741D01*
X13666399Y-9833351D01*
X13879433Y-9957838D01*
X13884253Y-9959678D01*
X13884258Y-9959681D01*
X13998547Y-10003323D01*
X14109939Y-10045859D01*
X14115007Y-10046890D01*
X14115010Y-10046891D01*
X14234587Y-10071219D01*
X14351726Y-10095052D01*
X14356899Y-10095242D01*
X14356902Y-10095242D01*
X14593136Y-10103904D01*
X14593140Y-10103904D01*
X14598300Y-10104093D01*
X14603420Y-10103437D01*
X14603422Y-10103437D01*
X14679703Y-10093665D01*
X14843041Y-10072741D01*
X14847990Y-10071256D01*
X14847996Y-10071255D01*
X15074424Y-10003323D01*
X15074423Y-10003323D01*
X15079374Y-10001838D01*
X15257451Y-9914599D01*
X15296303Y-9895566D01*
X15296308Y-9895563D01*
X15300954Y-9893287D01*
X15305164Y-9890284D01*
X15305169Y-9890281D01*
X15497617Y-9753009D01*
X15497622Y-9753005D01*
X15501829Y-9750004D01*
X15676605Y-9575837D01*
X15800820Y-9402973D01*
X15856814Y-9359326D01*
X15903142Y-9350500D01*
X19659421Y-9350500D01*
X19727542Y-9370502D01*
X19766853Y-9410665D01*
X19812303Y-9484831D01*
X19812306Y-9484835D01*
X19815006Y-9489241D01*
X19976557Y-9675741D01*
X19980532Y-9679041D01*
X19980535Y-9679044D01*
X20162418Y-9830046D01*
X20166399Y-9833351D01*
X20170856Y-9835955D01*
X20170861Y-9835959D01*
X20217070Y-9862961D01*
X20265794Y-9914599D01*
X20279500Y-9971749D01*
X20279500Y-13822617D01*
X20259498Y-13890738D01*
X20205842Y-13937231D01*
X20164482Y-13948138D01*
X20093308Y-13954365D01*
X20087995Y-13955789D01*
X20087993Y-13955789D01*
X19878814Y-14011838D01*
X19878812Y-14011839D01*
X19873504Y-14013261D01*
X19868524Y-14015583D01*
X19868522Y-14015584D01*
X19672247Y-14107109D01*
X19672244Y-14107111D01*
X19667266Y-14109432D01*
X19480861Y-14239953D01*
X19319953Y-14400861D01*
X19189432Y-14587266D01*
X19187111Y-14592244D01*
X19187109Y-14592247D01*
X19104917Y-14768507D01*
X19093261Y-14793504D01*
X19091839Y-14798812D01*
X19091838Y-14798814D01*
X19050035Y-14954826D01*
X19034365Y-15013308D01*
X19014532Y-15240000D01*
X19034365Y-15466692D01*
X19093261Y-15686496D01*
X19189432Y-15892734D01*
X19319953Y-16079139D01*
X19480861Y-16240047D01*
X19667266Y-16370568D01*
X19672244Y-16372889D01*
X19672247Y-16372891D01*
X19864405Y-16462496D01*
X19873504Y-16466739D01*
X19878812Y-16468161D01*
X19878814Y-16468162D01*
X20087993Y-16524211D01*
X20087995Y-16524211D01*
X20093308Y-16525635D01*
X20320000Y-16545468D01*
X20546692Y-16525635D01*
X20552005Y-16524211D01*
X20552007Y-16524211D01*
X20761186Y-16468162D01*
X20761188Y-16468161D01*
X20766496Y-16466739D01*
X20775595Y-16462496D01*
X20967753Y-16372891D01*
X20967756Y-16372889D01*
X20972734Y-16370568D01*
X21159139Y-16240047D01*
X21320047Y-16079139D01*
X21450568Y-15892734D01*
X21546739Y-15686496D01*
X21605635Y-15466692D01*
X21625468Y-15240000D01*
X21610090Y-15064224D01*
X21624079Y-14994620D01*
X21639585Y-14971665D01*
X21653891Y-14954826D01*
X21653893Y-14954824D01*
X21658632Y-14949245D01*
X21661963Y-14942722D01*
X21665256Y-14937784D01*
X21668340Y-14932790D01*
X21672881Y-14927051D01*
X21675978Y-14920424D01*
X21675982Y-14920418D01*
X21703454Y-14861637D01*
X21705385Y-14857685D01*
X21734890Y-14799903D01*
X21738219Y-14793384D01*
X21739959Y-14786273D01*
X21742020Y-14780731D01*
X21743881Y-14775138D01*
X21746980Y-14768507D01*
X21761690Y-14697786D01*
X21762660Y-14693502D01*
X21778480Y-14628849D01*
X21779815Y-14623394D01*
X21780500Y-14612352D01*
X21780532Y-14612354D01*
X21780779Y-14608241D01*
X21781128Y-14604334D01*
X21782618Y-14597169D01*
X21780546Y-14520600D01*
X21780500Y-14517192D01*
X21780500Y-9972771D01*
X21800502Y-9904650D01*
X21833331Y-9870193D01*
X21997617Y-9753009D01*
X21997622Y-9753005D01*
X22001829Y-9750004D01*
X22176605Y-9575837D01*
X22320588Y-9375463D01*
X22328564Y-9359326D01*
X22427617Y-9158905D01*
X22429911Y-9154264D01*
X22463045Y-9045207D01*
X22500135Y-8923132D01*
X22500136Y-8923126D01*
X22501639Y-8918180D01*
X22533845Y-8673550D01*
X22535643Y-8600000D01*
X22532618Y-8563214D01*
X28264806Y-8563214D01*
X28279010Y-8809545D01*
X28280147Y-8814591D01*
X28280148Y-8814597D01*
X28302336Y-8913051D01*
X28333255Y-9050249D01*
X28426084Y-9278861D01*
X28555006Y-9489241D01*
X28716557Y-9675741D01*
X28906399Y-9833351D01*
X29119433Y-9957838D01*
X29124253Y-9959678D01*
X29124258Y-9959681D01*
X29238547Y-10003323D01*
X29349939Y-10045859D01*
X29355007Y-10046890D01*
X29355010Y-10046891D01*
X29474587Y-10071219D01*
X29591726Y-10095052D01*
X29596899Y-10095242D01*
X29596902Y-10095242D01*
X29833136Y-10103904D01*
X29833140Y-10103904D01*
X29838300Y-10104093D01*
X29843420Y-10103437D01*
X29843422Y-10103437D01*
X29919703Y-10093665D01*
X30083041Y-10072741D01*
X30087990Y-10071256D01*
X30087996Y-10071255D01*
X30314424Y-10003323D01*
X30314423Y-10003323D01*
X30319374Y-10001838D01*
X30497451Y-9914599D01*
X30536303Y-9895566D01*
X30536308Y-9895563D01*
X30540954Y-9893287D01*
X30545164Y-9890284D01*
X30545169Y-9890281D01*
X30737617Y-9753009D01*
X30737622Y-9753005D01*
X30741829Y-9750004D01*
X30916605Y-9575837D01*
X31040820Y-9402973D01*
X31096814Y-9359326D01*
X31143142Y-9350500D01*
X34899421Y-9350500D01*
X34967542Y-9370502D01*
X35006853Y-9410665D01*
X35052303Y-9484831D01*
X35052306Y-9484835D01*
X35055006Y-9489241D01*
X35216557Y-9675741D01*
X35220532Y-9679041D01*
X35220535Y-9679044D01*
X35402418Y-9830046D01*
X35406399Y-9833351D01*
X35410856Y-9835955D01*
X35410861Y-9835959D01*
X35457070Y-9862961D01*
X35505794Y-9914599D01*
X35519500Y-9971749D01*
X35519500Y-13822617D01*
X35499498Y-13890738D01*
X35445842Y-13937231D01*
X35404482Y-13948138D01*
X35333308Y-13954365D01*
X35327995Y-13955789D01*
X35327993Y-13955789D01*
X35118814Y-14011838D01*
X35118812Y-14011839D01*
X35113504Y-14013261D01*
X35108524Y-14015583D01*
X35108522Y-14015584D01*
X34912247Y-14107109D01*
X34912244Y-14107111D01*
X34907266Y-14109432D01*
X34720861Y-14239953D01*
X34559953Y-14400861D01*
X34429432Y-14587266D01*
X34427111Y-14592244D01*
X34427109Y-14592247D01*
X34344917Y-14768507D01*
X34333261Y-14793504D01*
X34331839Y-14798812D01*
X34331838Y-14798814D01*
X34290035Y-14954826D01*
X34274365Y-15013308D01*
X34254532Y-15240000D01*
X34274365Y-15466692D01*
X34333261Y-15686496D01*
X34429432Y-15892734D01*
X34559953Y-16079139D01*
X34720861Y-16240047D01*
X34907266Y-16370568D01*
X34912244Y-16372889D01*
X34912247Y-16372891D01*
X35104405Y-16462496D01*
X35113504Y-16466739D01*
X35118812Y-16468161D01*
X35118814Y-16468162D01*
X35327993Y-16524211D01*
X35327995Y-16524211D01*
X35333308Y-16525635D01*
X35560000Y-16545468D01*
X35786692Y-16525635D01*
X35792005Y-16524211D01*
X35792007Y-16524211D01*
X36001186Y-16468162D01*
X36001188Y-16468161D01*
X36006496Y-16466739D01*
X36015595Y-16462496D01*
X36207753Y-16372891D01*
X36207756Y-16372889D01*
X36212734Y-16370568D01*
X36399139Y-16240047D01*
X36560047Y-16079139D01*
X36690568Y-15892734D01*
X36786739Y-15686496D01*
X36845635Y-15466692D01*
X36865468Y-15240000D01*
X36850090Y-15064224D01*
X36864079Y-14994620D01*
X36879585Y-14971665D01*
X36893891Y-14954826D01*
X36893893Y-14954824D01*
X36898632Y-14949245D01*
X36901963Y-14942722D01*
X36905256Y-14937784D01*
X36908340Y-14932790D01*
X36912881Y-14927051D01*
X36915978Y-14920424D01*
X36915982Y-14920418D01*
X36943454Y-14861637D01*
X36945385Y-14857685D01*
X36974890Y-14799903D01*
X36978219Y-14793384D01*
X36979959Y-14786273D01*
X36982020Y-14780731D01*
X36983881Y-14775138D01*
X36986980Y-14768507D01*
X37001690Y-14697786D01*
X37002660Y-14693502D01*
X37018480Y-14628849D01*
X37019815Y-14623394D01*
X37020500Y-14612352D01*
X37020532Y-14612354D01*
X37020779Y-14608241D01*
X37021128Y-14604334D01*
X37022618Y-14597169D01*
X37020546Y-14520600D01*
X37020500Y-14517192D01*
X37020500Y-9972771D01*
X37040502Y-9904650D01*
X37073331Y-9870193D01*
X37237617Y-9753009D01*
X37237622Y-9753005D01*
X37241829Y-9750004D01*
X37416605Y-9575837D01*
X37560588Y-9375463D01*
X37568564Y-9359326D01*
X37667617Y-9158905D01*
X37669911Y-9154264D01*
X37703045Y-9045207D01*
X37740135Y-8923132D01*
X37740136Y-8923126D01*
X37741639Y-8918180D01*
X37773845Y-8673550D01*
X37775643Y-8600000D01*
X37767660Y-8502906D01*
X37755849Y-8359240D01*
X37755848Y-8359234D01*
X37755425Y-8354089D01*
X37695316Y-8114783D01*
X37596928Y-7888507D01*
X37462905Y-7681339D01*
X37440516Y-7656733D01*
X37410243Y-7623464D01*
X37296846Y-7498842D01*
X37292795Y-7495643D01*
X37292791Y-7495639D01*
X37107264Y-7349119D01*
X37107259Y-7349116D01*
X37103210Y-7345918D01*
X37098694Y-7343425D01*
X37098691Y-7343423D01*
X36891722Y-7229170D01*
X36891718Y-7229168D01*
X36887198Y-7226673D01*
X36882329Y-7224949D01*
X36882325Y-7224947D01*
X36659485Y-7146035D01*
X36659481Y-7146034D01*
X36654610Y-7144309D01*
X36649517Y-7143402D01*
X36649514Y-7143401D01*
X36416783Y-7101945D01*
X36416777Y-7101944D01*
X36411694Y-7101039D01*
X36332324Y-7100069D01*
X36170142Y-7098088D01*
X36170140Y-7098088D01*
X36164972Y-7098025D01*
X35921070Y-7135347D01*
X35686540Y-7212003D01*
X35467679Y-7325935D01*
X35463546Y-7329038D01*
X35463543Y-7329040D01*
X35274499Y-7470978D01*
X35270364Y-7474083D01*
X35099896Y-7652468D01*
X35003004Y-7794506D01*
X34948095Y-7839507D01*
X34898918Y-7849500D01*
X31140248Y-7849500D01*
X31072127Y-7829498D01*
X31034456Y-7791940D01*
X30965715Y-7685683D01*
X30962905Y-7681339D01*
X30940516Y-7656733D01*
X30910243Y-7623464D01*
X30796846Y-7498842D01*
X30792795Y-7495643D01*
X30792791Y-7495639D01*
X30607264Y-7349119D01*
X30607259Y-7349116D01*
X30603210Y-7345918D01*
X30598694Y-7343425D01*
X30598691Y-7343423D01*
X30391722Y-7229170D01*
X30391718Y-7229168D01*
X30387198Y-7226673D01*
X30382329Y-7224949D01*
X30382325Y-7224947D01*
X30159485Y-7146035D01*
X30159481Y-7146034D01*
X30154610Y-7144309D01*
X30149517Y-7143402D01*
X30149514Y-7143401D01*
X29916783Y-7101945D01*
X29916777Y-7101944D01*
X29911694Y-7101039D01*
X29832324Y-7100069D01*
X29670142Y-7098088D01*
X29670140Y-7098088D01*
X29664972Y-7098025D01*
X29421070Y-7135347D01*
X29186540Y-7212003D01*
X28967679Y-7325935D01*
X28963546Y-7329038D01*
X28963543Y-7329040D01*
X28774499Y-7470978D01*
X28770364Y-7474083D01*
X28599896Y-7652468D01*
X28596987Y-7656733D01*
X28596981Y-7656741D01*
X28577238Y-7685683D01*
X28460851Y-7856300D01*
X28356965Y-8080104D01*
X28291026Y-8317871D01*
X28264806Y-8563214D01*
X22532618Y-8563214D01*
X22527660Y-8502906D01*
X22515849Y-8359240D01*
X22515848Y-8359234D01*
X22515425Y-8354089D01*
X22455316Y-8114783D01*
X22356928Y-7888507D01*
X22222905Y-7681339D01*
X22200516Y-7656733D01*
X22170243Y-7623464D01*
X22056846Y-7498842D01*
X22052795Y-7495643D01*
X22052791Y-7495639D01*
X21867264Y-7349119D01*
X21867259Y-7349116D01*
X21863210Y-7345918D01*
X21858694Y-7343425D01*
X21858691Y-7343423D01*
X21651722Y-7229170D01*
X21651718Y-7229168D01*
X21647198Y-7226673D01*
X21642329Y-7224949D01*
X21642325Y-7224947D01*
X21419485Y-7146035D01*
X21419481Y-7146034D01*
X21414610Y-7144309D01*
X21409517Y-7143402D01*
X21409514Y-7143401D01*
X21176783Y-7101945D01*
X21176777Y-7101944D01*
X21171694Y-7101039D01*
X21092324Y-7100069D01*
X20930142Y-7098088D01*
X20930140Y-7098088D01*
X20924972Y-7098025D01*
X20681070Y-7135347D01*
X20446540Y-7212003D01*
X20227679Y-7325935D01*
X20223546Y-7329038D01*
X20223543Y-7329040D01*
X20034499Y-7470978D01*
X20030364Y-7474083D01*
X19859896Y-7652468D01*
X19763004Y-7794506D01*
X19708095Y-7839507D01*
X19658918Y-7849500D01*
X15900248Y-7849500D01*
X15832127Y-7829498D01*
X15794456Y-7791940D01*
X15725715Y-7685683D01*
X15722905Y-7681339D01*
X15700516Y-7656733D01*
X15670243Y-7623464D01*
X15556846Y-7498842D01*
X15552795Y-7495643D01*
X15552791Y-7495639D01*
X15367264Y-7349119D01*
X15367259Y-7349116D01*
X15363210Y-7345918D01*
X15358694Y-7343425D01*
X15358691Y-7343423D01*
X15151722Y-7229170D01*
X15151718Y-7229168D01*
X15147198Y-7226673D01*
X15142329Y-7224949D01*
X15142325Y-7224947D01*
X14919485Y-7146035D01*
X14919481Y-7146034D01*
X14914610Y-7144309D01*
X14909517Y-7143402D01*
X14909514Y-7143401D01*
X14676783Y-7101945D01*
X14676777Y-7101944D01*
X14671694Y-7101039D01*
X14592324Y-7100069D01*
X14430142Y-7098088D01*
X14430140Y-7098088D01*
X14424972Y-7098025D01*
X14181070Y-7135347D01*
X13946540Y-7212003D01*
X13727679Y-7325935D01*
X13723546Y-7329038D01*
X13723543Y-7329040D01*
X13534499Y-7470978D01*
X13530364Y-7474083D01*
X13359896Y-7652468D01*
X13356987Y-7656733D01*
X13356981Y-7656741D01*
X13337238Y-7685683D01*
X13220851Y-7856300D01*
X13116965Y-8080104D01*
X13051026Y-8317871D01*
X13024806Y-8563214D01*
X11128153Y-8563214D01*
X14091622Y-5599745D01*
X14153934Y-5565719D01*
X14205838Y-5565370D01*
X14351726Y-5595052D01*
X14356899Y-5595242D01*
X14356902Y-5595242D01*
X14593136Y-5603904D01*
X14593140Y-5603904D01*
X14598300Y-5604093D01*
X14603420Y-5603437D01*
X14603422Y-5603437D01*
X14679703Y-5593665D01*
X14843041Y-5572741D01*
X14847990Y-5571256D01*
X14847996Y-5571255D01*
X15074424Y-5503323D01*
X15074423Y-5503323D01*
X15079374Y-5501838D01*
X15183266Y-5450942D01*
X15296303Y-5395566D01*
X15296308Y-5395563D01*
X15300954Y-5393287D01*
X15305164Y-5390284D01*
X15305169Y-5390281D01*
X15497617Y-5253009D01*
X15497622Y-5253005D01*
X15501829Y-5250004D01*
X15676605Y-5075837D01*
X15800820Y-4902973D01*
X15856814Y-4859326D01*
X15903142Y-4850500D01*
X19659421Y-4850500D01*
X19727542Y-4870502D01*
X19766853Y-4910665D01*
X19812303Y-4984831D01*
X19812306Y-4984835D01*
X19815006Y-4989241D01*
X19976557Y-5175741D01*
X20166399Y-5333351D01*
X20379433Y-5457838D01*
X20384253Y-5459678D01*
X20384258Y-5459681D01*
X20498547Y-5503323D01*
X20609939Y-5545859D01*
X20615007Y-5546890D01*
X20615010Y-5546891D01*
X20705837Y-5565370D01*
X20851726Y-5595052D01*
X20856899Y-5595242D01*
X20856902Y-5595242D01*
X21093136Y-5603904D01*
X21093140Y-5603904D01*
X21098300Y-5604093D01*
X21103420Y-5603437D01*
X21103422Y-5603437D01*
X21179703Y-5593665D01*
X21343041Y-5572741D01*
X21347990Y-5571256D01*
X21347996Y-5571255D01*
X21574424Y-5503323D01*
X21574423Y-5503323D01*
X21579374Y-5501838D01*
X21683266Y-5450942D01*
X21796303Y-5395566D01*
X21796308Y-5395563D01*
X21800954Y-5393287D01*
X21805164Y-5390284D01*
X21805169Y-5390281D01*
X21997617Y-5253009D01*
X21997622Y-5253005D01*
X22001829Y-5250004D01*
X22176605Y-5075837D01*
X22300820Y-4902973D01*
X22356814Y-4859326D01*
X22403142Y-4850500D01*
X28399421Y-4850500D01*
X28467542Y-4870502D01*
X28506853Y-4910665D01*
X28552303Y-4984831D01*
X28552306Y-4984835D01*
X28555006Y-4989241D01*
X28716557Y-5175741D01*
X28906399Y-5333351D01*
X29119433Y-5457838D01*
X29124253Y-5459678D01*
X29124258Y-5459681D01*
X29238547Y-5503323D01*
X29349939Y-5545859D01*
X29355007Y-5546890D01*
X29355010Y-5546891D01*
X29445837Y-5565370D01*
X29591726Y-5595052D01*
X29596899Y-5595242D01*
X29596902Y-5595242D01*
X29833136Y-5603904D01*
X29833140Y-5603904D01*
X29838300Y-5604093D01*
X29843420Y-5603437D01*
X29843422Y-5603437D01*
X29919703Y-5593665D01*
X30083041Y-5572741D01*
X30087990Y-5571256D01*
X30087996Y-5571255D01*
X30314424Y-5503323D01*
X30314423Y-5503323D01*
X30319374Y-5501838D01*
X30423266Y-5450942D01*
X30536303Y-5395566D01*
X30536308Y-5395563D01*
X30540954Y-5393287D01*
X30545164Y-5390284D01*
X30545169Y-5390281D01*
X30737617Y-5253009D01*
X30737622Y-5253005D01*
X30741829Y-5250004D01*
X30916605Y-5075837D01*
X31040820Y-4902973D01*
X31096814Y-4859326D01*
X31143142Y-4850500D01*
X34899421Y-4850500D01*
X34967542Y-4870502D01*
X35006853Y-4910665D01*
X35052303Y-4984831D01*
X35052306Y-4984835D01*
X35055006Y-4989241D01*
X35216557Y-5175741D01*
X35406399Y-5333351D01*
X35619433Y-5457838D01*
X35624253Y-5459678D01*
X35624258Y-5459681D01*
X35738547Y-5503323D01*
X35849939Y-5545859D01*
X35855007Y-5546890D01*
X35855010Y-5546891D01*
X35945837Y-5565370D01*
X36091726Y-5595052D01*
X36096899Y-5595242D01*
X36096902Y-5595242D01*
X36333136Y-5603904D01*
X36333140Y-5603904D01*
X36338300Y-5604093D01*
X36343420Y-5603437D01*
X36343422Y-5603437D01*
X36419703Y-5593665D01*
X36583041Y-5572741D01*
X36587990Y-5571256D01*
X36587996Y-5571255D01*
X36814424Y-5503323D01*
X36814423Y-5503323D01*
X36819374Y-5501838D01*
X36923266Y-5450942D01*
X37036303Y-5395566D01*
X37036308Y-5395563D01*
X37040954Y-5393287D01*
X37045164Y-5390284D01*
X37045169Y-5390281D01*
X37237617Y-5253009D01*
X37237622Y-5253005D01*
X37241829Y-5250004D01*
X37416605Y-5075837D01*
X37560588Y-4875463D01*
X37568564Y-4859326D01*
X37667617Y-4658905D01*
X37669911Y-4654264D01*
X37719124Y-4492286D01*
X37740135Y-4423132D01*
X37740136Y-4423126D01*
X37741639Y-4418180D01*
X37773845Y-4173550D01*
X37775643Y-4100000D01*
X37767660Y-4002906D01*
X37755849Y-3859240D01*
X37755848Y-3859234D01*
X37755425Y-3854089D01*
X37695316Y-3614783D01*
X37596928Y-3388507D01*
X37462905Y-3181339D01*
X37440516Y-3156733D01*
X37410243Y-3123464D01*
X37296846Y-2998842D01*
X37292795Y-2995643D01*
X37292791Y-2995639D01*
X37107264Y-2849119D01*
X37107259Y-2849116D01*
X37103210Y-2845918D01*
X37098694Y-2843425D01*
X37098691Y-2843423D01*
X36891722Y-2729170D01*
X36891718Y-2729168D01*
X36887198Y-2726673D01*
X36882329Y-2724949D01*
X36882325Y-2724947D01*
X36659485Y-2646035D01*
X36659481Y-2646034D01*
X36654610Y-2644309D01*
X36649517Y-2643402D01*
X36649514Y-2643401D01*
X36416783Y-2601945D01*
X36416777Y-2601944D01*
X36411694Y-2601039D01*
X36332324Y-2600069D01*
X36170142Y-2598088D01*
X36170140Y-2598088D01*
X36164972Y-2598025D01*
X35921070Y-2635347D01*
X35686540Y-2712003D01*
X35467679Y-2825935D01*
X35463546Y-2829038D01*
X35463543Y-2829040D01*
X35274499Y-2970978D01*
X35270364Y-2974083D01*
X35099896Y-3152468D01*
X35003004Y-3294506D01*
X34948095Y-3339507D01*
X34898918Y-3349500D01*
X31140248Y-3349500D01*
X31072127Y-3329498D01*
X31034456Y-3291940D01*
X30965715Y-3185683D01*
X30962905Y-3181339D01*
X30940516Y-3156733D01*
X30910243Y-3123464D01*
X30796846Y-2998842D01*
X30792795Y-2995643D01*
X30792791Y-2995639D01*
X30607264Y-2849119D01*
X30607259Y-2849116D01*
X30603210Y-2845918D01*
X30598694Y-2843425D01*
X30598691Y-2843423D01*
X30391722Y-2729170D01*
X30391718Y-2729168D01*
X30387198Y-2726673D01*
X30382329Y-2724949D01*
X30382325Y-2724947D01*
X30159485Y-2646035D01*
X30159481Y-2646034D01*
X30154610Y-2644309D01*
X30149517Y-2643402D01*
X30149514Y-2643401D01*
X29916783Y-2601945D01*
X29916777Y-2601944D01*
X29911694Y-2601039D01*
X29832324Y-2600069D01*
X29670142Y-2598088D01*
X29670140Y-2598088D01*
X29664972Y-2598025D01*
X29421070Y-2635347D01*
X29186540Y-2712003D01*
X28967679Y-2825935D01*
X28963546Y-2829038D01*
X28963543Y-2829040D01*
X28774499Y-2970978D01*
X28770364Y-2974083D01*
X28599896Y-3152468D01*
X28503004Y-3294506D01*
X28448095Y-3339507D01*
X28398918Y-3349500D01*
X22400248Y-3349500D01*
X22332127Y-3329498D01*
X22294456Y-3291940D01*
X22225715Y-3185683D01*
X22222905Y-3181339D01*
X22200516Y-3156733D01*
X22170243Y-3123464D01*
X22056846Y-2998842D01*
X22052795Y-2995643D01*
X22052791Y-2995639D01*
X21867264Y-2849119D01*
X21867259Y-2849116D01*
X21863210Y-2845918D01*
X21858694Y-2843425D01*
X21858691Y-2843423D01*
X21651722Y-2729170D01*
X21651718Y-2729168D01*
X21647198Y-2726673D01*
X21642329Y-2724949D01*
X21642325Y-2724947D01*
X21419485Y-2646035D01*
X21419481Y-2646034D01*
X21414610Y-2644309D01*
X21409517Y-2643402D01*
X21409514Y-2643401D01*
X21176783Y-2601945D01*
X21176777Y-2601944D01*
X21171694Y-2601039D01*
X21092324Y-2600069D01*
X20930142Y-2598088D01*
X20930140Y-2598088D01*
X20924972Y-2598025D01*
X20681070Y-2635347D01*
X20446540Y-2712003D01*
X20227679Y-2825935D01*
X20223546Y-2829038D01*
X20223543Y-2829040D01*
X20034499Y-2970978D01*
X20030364Y-2974083D01*
X19859896Y-3152468D01*
X19763004Y-3294506D01*
X19708095Y-3339507D01*
X19658918Y-3349500D01*
X15900248Y-3349500D01*
X15832127Y-3329498D01*
X15794456Y-3291940D01*
X15725715Y-3185683D01*
X15722905Y-3181339D01*
X15700516Y-3156733D01*
X15670243Y-3123464D01*
X15556846Y-2998842D01*
X15552795Y-2995643D01*
X15552791Y-2995639D01*
X15367264Y-2849119D01*
X15367259Y-2849116D01*
X15363210Y-2845918D01*
X15358694Y-2843425D01*
X15358691Y-2843423D01*
X15151722Y-2729170D01*
X15151718Y-2729168D01*
X15147198Y-2726673D01*
X15142329Y-2724949D01*
X15142325Y-2724947D01*
X14919485Y-2646035D01*
X14919481Y-2646034D01*
X14914610Y-2644309D01*
X14909517Y-2643402D01*
X14909514Y-2643401D01*
X14676783Y-2601945D01*
X14676777Y-2601944D01*
X14671694Y-2601039D01*
X14592324Y-2600069D01*
X14430142Y-2598088D01*
X14430140Y-2598088D01*
X14424972Y-2598025D01*
X14181070Y-2635347D01*
X13946540Y-2712003D01*
X13727679Y-2825935D01*
X13723546Y-2829038D01*
X13723543Y-2829040D01*
X13534499Y-2970978D01*
X13530364Y-2974083D01*
X13359896Y-3152468D01*
X13356987Y-3156733D01*
X13356981Y-3156741D01*
X13337238Y-3185683D01*
X13220851Y-3356300D01*
X13116965Y-3580104D01*
X13051026Y-3817871D01*
X13024806Y-4063214D01*
X13039010Y-4309545D01*
X13054978Y-4380399D01*
X13064225Y-4421435D01*
X13059689Y-4492286D01*
X13030403Y-4538230D01*
X4596311Y-12972322D01*
X4581898Y-12984709D01*
X4570575Y-12993041D01*
X4570571Y-12993045D01*
X4564676Y-12997383D01*
X4530849Y-13037200D01*
X4523929Y-13044704D01*
X4518330Y-13050303D01*
X4500886Y-13072351D01*
X4498117Y-13075727D01*
X4456108Y-13125175D01*
X4456106Y-13125178D01*
X4451368Y-13130755D01*
X4448040Y-13137274D01*
X4444765Y-13142184D01*
X4441664Y-13147204D01*
X4437119Y-13152949D01*
X4434017Y-13159587D01*
X4434016Y-13159588D01*
X4406556Y-13218343D01*
X4404628Y-13222289D01*
X4371781Y-13286616D01*
X4370042Y-13293725D01*
X4367983Y-13299260D01*
X4366117Y-13304868D01*
X4363021Y-13311493D01*
X4361532Y-13318653D01*
X4361531Y-13318655D01*
X4348315Y-13382193D01*
X4347344Y-13386482D01*
X4330185Y-13456606D01*
X4329500Y-13467648D01*
X4329468Y-13467646D01*
X4329221Y-13471776D01*
X4328875Y-13475656D01*
X4327382Y-13482831D01*
X4327580Y-13490152D01*
X4327580Y-13490153D01*
X4329454Y-13559400D01*
X4329500Y-13562808D01*
X4329500Y-14112296D01*
X4309498Y-14180417D01*
X4275771Y-14215509D01*
X4240861Y-14239953D01*
X4079953Y-14400861D01*
X3949432Y-14587266D01*
X3947111Y-14592244D01*
X3947109Y-14592247D01*
X3864917Y-14768507D01*
X3853261Y-14793504D01*
X3851839Y-14798812D01*
X3851838Y-14798814D01*
X3810035Y-14954826D01*
X3794365Y-15013308D01*
X3774532Y-15240000D01*
X1000Y-15240000D01*
X1000Y-127000D01*
X21002Y-58879D01*
X74658Y-12386D01*
X127000Y-1000D01*
X48133000Y-1000D01*
X48201121Y-21002D01*
G37*
%TD.AperFunction*%
%TD*%
M02*
