<?xml version="1.0" encoding="UTF-8" standalone="no"?>
<!-- Created with Inkscape (http://www.inkscape.org/) -->

<svg
   version="1.1"
   id="svg2"
   width="161.76001"
   height="104.23999"
   viewBox="0 0 161.76002 104.23999"
   sodipodi:docname="b-mask.pdf"
   xmlns:inkscape="http://www.inkscape.org/namespaces/inkscape"
   xmlns:sodipodi="http://sodipodi.sourceforge.net/DTD/sodipodi-0.dtd"
   xmlns="http://www.w3.org/2000/svg"
   xmlns:svg="http://www.w3.org/2000/svg">
  <defs
     id="defs6" />
  <sodipodi:namedview
     id="namedview4"
     pagecolor="#505050"
     bordercolor="#eeeeee"
     borderopacity="1"
     inkscape:showpageshadow="0"
     inkscape:pageopacity="0"
     inkscape:pagecheckerboard="0"
     inkscape:deskcolor="#505050"
     showgrid="false" />
  <g
     id="g10"
     inkscape:groupmode="layer"
     inkscape:label="Page 1"
     transform="translate(-453.28001,-349.91999)">
    <g
       id="g16"
       transform="translate(538.40002,440.95999)"
       inkscape:export-filename="b-mask.svg"
       inkscape:export-xdpi="300"
       inkscape:export-ydpi="300">
      <path
         d="m 0,0 c 0,0.64 -0.64,1.28 -1.28,1.28 -0.8,0 -1.44,-0.64 -1.44,-1.28 0,-0.8 0.64,-1.44 1.44,-1.44 C -0.64,-1.44 0,-0.8 0,0 Z"
         style="fill:#000000;fill-opacity:1;fill-rule:nonzero;stroke:none"
         id="path18" />
    </g>
    <g
       id="g20"
       transform="translate(497.12,434.72)">
      <path
         d="m 0,0 c 0,0.64 -0.64,1.28 -1.28,1.28 -0.8,0 -1.44,-0.64 -1.44,-1.28 0,-0.8 0.64,-1.44 1.44,-1.44 C -0.64,-1.44 0,-0.8 0,0 Z"
         style="fill:#000000;fill-opacity:1;fill-rule:nonzero;stroke:none"
         id="path22" />
    </g>
    <g
       id="g24"
       transform="translate(503.84,427.20001)">
      <path
         d="m 0,0 c 0,0.64 -0.64,1.28 -1.28,1.28 -0.8,0 -1.44,-0.64 -1.44,-1.28 0,-0.8 0.64,-1.44 1.44,-1.44 C -0.64,-1.44 0,-0.8 0,0 Z"
         style="fill:#000000;fill-opacity:1;fill-rule:nonzero;stroke:none"
         id="path26" />
    </g>
    <g
       id="g28"
       transform="translate(510.23999,434.72)">
      <path
         d="m 0,0 c 0,0.64 -0.64,1.28 -1.28,1.28 -0.8,0 -1.44,-0.64 -1.44,-1.28 0,-0.8 0.64,-1.44 1.44,-1.44 C -0.64,-1.44 0,-0.8 0,0 Z"
         style="fill:#000000;fill-opacity:1;fill-rule:nonzero;stroke:none"
         id="path30" />
    </g>
    <g
       id="g32"
       transform="translate(516.32001,403.51999)">
      <path
         d="m 0,0 c 0,0.64 -0.64,1.28 -1.28,1.28 -0.8,0 -1.44,-0.64 -1.44,-1.28 0,-0.8 0.64,-1.44 1.44,-1.44 C -0.64,-1.44 0,-0.8 0,0 Z"
         style="fill:#000000;fill-opacity:1;fill-rule:nonzero;stroke:none"
         id="path34" />
    </g>
    <g
       id="g36"
       transform="translate(599.84003,431.51999)">
      <path
         d="m 0,0 c 0,0.64 -0.64,1.28 -1.28,1.28 -0.8,0 -1.44,-0.64 -1.44,-1.28 0,-0.8 0.64,-1.44 1.44,-1.44 C -0.64,-1.44 0,-0.8 0,0 Z"
         style="fill:#000000;fill-opacity:1;fill-rule:nonzero;stroke:none"
         id="path38" />
    </g>
    <g
       id="g40"
       transform="translate(599.84003,450.39999)">
      <path
         d="m 0,0 c 0,0.64 -0.64,1.28 -1.28,1.28 -0.8,0 -1.44,-0.64 -1.44,-1.28 0,-0.8 0.64,-1.44 1.44,-1.44 C -0.64,-1.44 0,-0.8 0,0 Z"
         style="fill:#000000;fill-opacity:1;fill-rule:nonzero;stroke:none"
         id="path42" />
    </g>
    <g
       id="g44"
       transform="translate(538.40002,450.56)">
      <path
         d="m 0,0 c 0,0.64 -0.64,1.28 -1.28,1.28 -0.8,0 -1.44,-0.64 -1.44,-1.28 0,-0.8 0.64,-1.44 1.44,-1.44 C -0.64,-1.44 0,-0.8 0,0 Z"
         style="fill:#000000;fill-opacity:1;fill-rule:nonzero;stroke:none"
         id="path46" />
    </g>
    <g
       id="g48"
       transform="translate(613.28003,403.51999)">
      <path
         d="m 0,0 c 0,0.64 -0.64,1.28 -1.28,1.28 -0.8,0 -1.44,-0.64 -1.44,-1.28 0,-0.8 0.64,-1.44 1.44,-1.44 C -0.64,-1.44 0,-0.8 0,0 Z"
         style="fill:#000000;fill-opacity:1;fill-rule:nonzero;stroke:none"
         id="path50" />
    </g>
    <g
       id="g52"
       transform="translate(574.88,403.51999)">
      <path
         d="m 0,0 c 0,0.64 -0.64,1.28 -1.28,1.28 -0.8,0 -1.44,-0.64 -1.44,-1.28 0,-0.8 0.64,-1.44 1.44,-1.44 C -0.64,-1.44 0,-0.8 0,0 Z"
         style="fill:#000000;fill-opacity:1;fill-rule:nonzero;stroke:none"
         id="path54" />
    </g>
    <g
       id="g56"
       transform="translate(554.71997,403.51999)">
      <path
         d="m 0,0 c 0,0.64 -0.64,1.28 -1.28,1.28 -0.8,0 -1.44,-0.64 -1.44,-1.28 0,-0.8 0.64,-1.44 1.44,-1.44 C -0.64,-1.44 0,-0.8 0,0 Z"
         style="fill:#000000;fill-opacity:1;fill-rule:nonzero;stroke:none"
         id="path58" />
    </g>
    <g
       id="g60"
       transform="translate(467.35999,434.72)">
      <path
         d="m 0,0 c 0,0.64 -0.64,1.28 -1.28,1.28 -0.8,0 -1.44,-0.64 -1.44,-1.28 0,-0.8 0.64,-1.44 1.44,-1.44 C -0.64,-1.44 0,-0.8 0,0 Z"
         style="fill:#000000;fill-opacity:1;fill-rule:nonzero;stroke:none"
         id="path62" />
    </g>
    <g
       id="g64"
       transform="translate(474.07999,427.20001)">
      <path
         d="m 0,0 c 0,0.64 -0.64,1.28 -1.28,1.28 -0.8,0 -1.44,-0.64 -1.44,-1.28 0,-0.8 0.64,-1.44 1.44,-1.44 C -0.64,-1.44 0,-0.8 0,0 Z"
         style="fill:#000000;fill-opacity:1;fill-rule:nonzero;stroke:none"
         id="path66" />
    </g>
    <g
       id="g68"
       transform="translate(480.48001,434.72)">
      <path
         d="m 0,0 c 0,0.64 -0.64,1.28 -1.28,1.28 -0.8,0 -1.44,-0.64 -1.44,-1.28 0,-0.8 0.64,-1.44 1.44,-1.44 C -0.64,-1.44 0,-0.8 0,0 Z"
         style="fill:#000000;fill-opacity:1;fill-rule:nonzero;stroke:none"
         id="path70" />
    </g>
    <g
       id="g72"
       transform="translate(496.16,403.51999)">
      <path
         d="m 0,0 c 0,0.64 -0.64,1.28 -1.28,1.28 -0.8,0 -1.44,-0.64 -1.44,-1.28 0,-0.8 0.64,-1.44 1.44,-1.44 C -0.64,-1.44 0,-0.8 0,0 Z"
         style="fill:#000000;fill-opacity:1;fill-rule:nonzero;stroke:none"
         id="path74" />
    </g>
    <g
       id="g76"
       transform="translate(457.76001,403.51999)">
      <path
         d="m 0,0 c 0,0.64 -0.64,1.28 -1.28,1.28 -0.8,0 -1.44,-0.64 -1.44,-1.28 0,-0.8 0.64,-1.44 1.44,-1.44 C -0.64,-1.44 0,-0.8 0,0 Z"
         style="fill:#000000;fill-opacity:1;fill-rule:nonzero;stroke:none"
         id="path78" />
    </g>
    <g
       id="g80"
       transform="translate(579.35998,355.67999)">
      <path
         d="m 0,0 c 0,0.64 -0.64,1.28 -1.28,1.28 -0.8,0 -1.44,-0.64 -1.44,-1.28 0,-0.8 0.64,-1.44 1.44,-1.44 C -0.64,-1.44 0,-0.8 0,0 Z"
         style="fill:#000000;fill-opacity:1;fill-rule:nonzero;stroke:none"
         id="path82" />
    </g>
    <g
       id="g84"
       transform="translate(554.88,355.67999)">
      <path
         d="m 0,0 c 0,0.64 -0.64,1.28 -1.28,1.28 -0.8,0 -1.44,-0.64 -1.44,-1.28 0,-0.8 0.64,-1.44 1.44,-1.44 C -0.64,-1.44 0,-0.8 0,0 Z"
         style="fill:#000000;fill-opacity:1;fill-rule:nonzero;stroke:none"
         id="path86" />
    </g>
    <g
       id="g88"
       transform="translate(554.88,372.64001)">
      <path
         d="m 0,0 c 0,0.64 -0.64,1.28 -1.28,1.28 -0.8,0 -1.44,-0.64 -1.44,-1.28 0,-0.8 0.64,-1.44 1.44,-1.44 C -0.64,-1.44 0,-0.8 0,0 Z"
         style="fill:#000000;fill-opacity:1;fill-rule:nonzero;stroke:none"
         id="path90" />
    </g>
    <g
       id="g92"
       transform="translate(579.35998,372.64001)">
      <path
         d="m 0,0 c 0,0.64 -0.64,1.28 -1.28,1.28 -0.8,0 -1.44,-0.64 -1.44,-1.28 0,-0.8 0.64,-1.44 1.44,-1.44 C -0.64,-1.44 0,-0.8 0,0 Z"
         style="fill:#000000;fill-opacity:1;fill-rule:nonzero;stroke:none"
         id="path94" />
    </g>
    <g
       id="g96"
       transform="translate(496.32001,355.67999)">
      <path
         d="m 0,0 c 0,0.64 -0.64,1.28 -1.28,1.28 -0.8,0 -1.44,-0.64 -1.44,-1.28 0,-0.8 0.64,-1.44 1.44,-1.44 C -0.64,-1.44 0,-0.8 0,0 Z"
         style="fill:#000000;fill-opacity:1;fill-rule:nonzero;stroke:none"
         id="path98" />
    </g>
    <g
       id="g100"
       transform="translate(520.79999,355.67999)">
      <path
         d="m 0,0 c 0,0.64 -0.64,1.28 -1.28,1.28 -0.8,0 -1.44,-0.64 -1.44,-1.28 0,-0.8 0.64,-1.44 1.44,-1.44 C -0.64,-1.44 0,-0.8 0,0 Z"
         style="fill:#000000;fill-opacity:1;fill-rule:nonzero;stroke:none"
         id="path102" />
    </g>
    <g
       id="g104"
       transform="translate(496.32001,372.64001)">
      <path
         d="m 0,0 c 0,0.64 -0.64,1.28 -1.28,1.28 -0.8,0 -1.44,-0.64 -1.44,-1.28 0,-0.8 0.64,-1.44 1.44,-1.44 C -0.64,-1.44 0,-0.8 0,0 Z"
         style="fill:#000000;fill-opacity:1;fill-rule:nonzero;stroke:none"
         id="path106" />
    </g>
    <g
       id="g108"
       transform="translate(520.79999,372.64001)">
      <path
         d="m 0,0 c 0,0.64 -0.64,1.28 -1.28,1.28 -0.8,0 -1.44,-0.64 -1.44,-1.28 0,-0.8 0.64,-1.44 1.44,-1.44 C -0.64,-1.44 0,-0.8 0,0 Z"
         style="fill:#000000;fill-opacity:1;fill-rule:nonzero;stroke:none"
         id="path110" />
    </g>
    <g
       id="g112"
       transform="translate(540.47998,440.95999)">
      <path
         d="m 0,0 c 0,1.76 -1.6,3.36 -3.36,3.36 -1.92,0 -3.52,-1.6 -3.52,-3.36 0,-1.92 1.6,-3.52 3.52,-3.52 C -1.6,-3.52 0,-1.92 0,0 Z"
         style="fill:#000000;fill-opacity:1;fill-rule:nonzero;stroke:none"
         id="path114" />
    </g>
    <g
       id="g116">
      <path
         d="m 497.76001,431.84 h -4 v 5.76001 h 4 z"
         style="fill:#000000;fill-opacity:1;fill-rule:nonzero;stroke:none"
         id="path118" />
    </g>
    <g
       id="g120"
       transform="translate(506.39999,427.20001)">
      <path
         d="m 0,0 c 0,2.08 -1.76,3.84 -3.84,3.84 -2.24,0 -4,-1.76 -4,-3.84 0,-2.24 1.76,-4 4,-4 C -1.76,-4 0,-2.24 0,0 Z"
         style="fill:#000000;fill-opacity:1;fill-rule:nonzero;stroke:none"
         id="path122" />
    </g>
    <g
       id="g124"
       transform="translate(512.79999,434.72)">
      <path
         d="m 0,0 c 0,2.08 -1.76,3.84 -3.84,3.84 -2.24,0 -4,-1.76 -4,-3.84 0,-2.24 1.76,-4 4,-4 C -1.76,-4 0,-2.24 0,0 Z"
         style="fill:#000000;fill-opacity:1;fill-rule:nonzero;stroke:none"
         id="path126" />
    </g>
    <g
       id="g128"
       transform="translate(518.08002,403.51999)">
      <path
         d="m 0,0 c 0,1.6 -1.44,3.04 -3.04,3.04 -1.76,0 -3.2,-1.44 -3.2,-3.04 0,-1.76 1.44,-3.2 3.2,-3.2 1.6,0 3.04,1.44 3.04,3.2 z"
         style="fill:#000000;fill-opacity:1;fill-rule:nonzero;stroke:none"
         id="path130" />
    </g>
    <g
       id="g132">
      <path
         d="M 604.15997,425.76001 H 592.79999 V 437.12 h 11.35998 z"
         style="fill:#000000;fill-opacity:1;fill-rule:nonzero;stroke:none"
         id="path134" />
    </g>
    <g
       id="g136">
      <path
         d="m 594.71997,450.39999 h 7.52002"
         style="fill:none;stroke:#000000;stroke-width:7.52;stroke-linecap:round;stroke-linejoin:round;stroke-miterlimit:10;stroke-dasharray:none;stroke-opacity:1"
         id="path138" />
    </g>
    <g
       id="g140">
      <path
         d="m 540.47998,447.20001 h -6.88 v 6.72 h 6.88 z"
         style="fill:#000000;fill-opacity:1;fill-rule:nonzero;stroke:none"
         id="path142" />
    </g>
    <g
       id="g144"
       transform="translate(615.03998,403.51999)">
      <path
         d="m 0,0 c 0,1.6 -1.44,3.04 -3.04,3.04 -1.76,0 -3.2,-1.44 -3.2,-3.04 0,-1.76 1.44,-3.2 3.2,-3.2 1.6,0 3.04,1.44 3.04,3.2 z"
         style="fill:#000000;fill-opacity:1;fill-rule:nonzero;stroke:none"
         id="path146" />
    </g>
    <g
       id="g148"
       transform="translate(576.64001,403.51999)">
      <path
         d="m 0,0 c 0,1.6 -1.44,3.04 -3.04,3.04 -1.76,0 -3.2,-1.44 -3.2,-3.04 0,-1.76 1.44,-3.2 3.2,-3.2 1.6,0 3.04,1.44 3.04,3.2 z"
         style="fill:#000000;fill-opacity:1;fill-rule:nonzero;stroke:none"
         id="path150" />
    </g>
    <g
       id="g152"
       transform="translate(556.47998,403.51999)">
      <path
         d="m 0,0 c 0,1.6 -1.44,3.04 -3.04,3.04 -1.76,0 -3.2,-1.44 -3.2,-3.04 0,-1.76 1.44,-3.2 3.2,-3.2 1.6,0 3.04,1.44 3.04,3.2 z"
         style="fill:#000000;fill-opacity:1;fill-rule:nonzero;stroke:none"
         id="path154" />
    </g>
    <g
       id="g156">
      <path
         d="m 468,431.84 h -4 v 5.76001 h 4 z"
         style="fill:#000000;fill-opacity:1;fill-rule:nonzero;stroke:none"
         id="path158" />
    </g>
    <g
       id="g160"
       transform="translate(476.64001,427.20001)">
      <path
         d="m 0,0 c 0,2.08 -1.76,3.84 -3.84,3.84 -2.24,0 -4,-1.76 -4,-3.84 0,-2.24 1.76,-4 4,-4 C -1.76,-4 0,-2.24 0,0 Z"
         style="fill:#000000;fill-opacity:1;fill-rule:nonzero;stroke:none"
         id="path162" />
    </g>
    <g
       id="g164"
       transform="translate(483.04001,434.72)">
      <path
         d="m 0,0 c 0,2.08 -1.76,3.84 -3.84,3.84 -2.24,0 -4,-1.76 -4,-3.84 0,-2.24 1.76,-4 4,-4 C -1.76,-4 0,-2.24 0,0 Z"
         style="fill:#000000;fill-opacity:1;fill-rule:nonzero;stroke:none"
         id="path166" />
    </g>
    <g
       id="g168"
       transform="translate(497.92001,403.51999)">
      <path
         d="m 0,0 c 0,1.6 -1.44,3.04 -3.04,3.04 -1.76,0 -3.2,-1.44 -3.2,-3.04 0,-1.76 1.44,-3.2 3.2,-3.2 1.6,0 3.04,1.44 3.04,3.2 z"
         style="fill:#000000;fill-opacity:1;fill-rule:nonzero;stroke:none"
         id="path170" />
    </g>
    <g
       id="g172"
       transform="translate(459.51999,403.51999)">
      <path
         d="m 0,0 c 0,1.6 -1.44,3.04 -3.04,3.04 -1.76,0 -3.2,-1.44 -3.2,-3.04 0,-1.76 1.44,-3.2 3.2,-3.2 1.6,0 3.04,1.44 3.04,3.2 z"
         style="fill:#000000;fill-opacity:1;fill-rule:nonzero;stroke:none"
         id="path174" />
    </g>
    <g
       id="g176"
       transform="translate(583.67999,355.67999)">
      <path
         d="m 0,0 c 0,3.04 -2.56,5.6 -5.6,5.6 -3.2,0 -5.76,-2.56 -5.76,-5.6 0,-3.2 2.56,-5.76 5.76,-5.76 3.04,0 5.6,2.56 5.6,5.76 z"
         style="fill:#000000;fill-opacity:1;fill-rule:nonzero;stroke:none"
         id="path178" />
    </g>
    <g
       id="g180"
       transform="translate(559.20001,355.67999)">
      <path
         d="m 0,0 c 0,3.04 -2.56,5.6 -5.6,5.6 -3.2,0 -5.76,-2.56 -5.76,-5.6 0,-3.2 2.56,-5.76 5.76,-5.76 3.04,0 5.6,2.56 5.6,5.76 z"
         style="fill:#000000;fill-opacity:1;fill-rule:nonzero;stroke:none"
         id="path182" />
    </g>
    <g
       id="g184"
       transform="translate(559.20001,372.64001)">
      <path
         d="m 0,0 c 0,3.04 -2.56,5.6 -5.6,5.6 -3.2,0 -5.76,-2.56 -5.76,-5.6 0,-3.2 2.56,-5.76 5.76,-5.76 3.04,0 5.6,2.56 5.6,5.76 z"
         style="fill:#000000;fill-opacity:1;fill-rule:nonzero;stroke:none"
         id="path186" />
    </g>
    <g
       id="g188"
       transform="translate(583.67999,372.64001)">
      <path
         d="m 0,0 c 0,3.04 -2.56,5.6 -5.6,5.6 -3.2,0 -5.76,-2.56 -5.76,-5.6 0,-3.2 2.56,-5.76 5.76,-5.76 3.04,0 5.6,2.56 5.6,5.76 z"
         style="fill:#000000;fill-opacity:1;fill-rule:nonzero;stroke:none"
         id="path190" />
    </g>
    <g
       id="g192"
       transform="translate(500.64001,355.67999)">
      <path
         d="m 0,0 c 0,3.04 -2.56,5.6 -5.6,5.6 -3.2,0 -5.76,-2.56 -5.76,-5.6 0,-3.2 2.56,-5.76 5.76,-5.76 3.04,0 5.6,2.56 5.6,5.76 z"
         style="fill:#000000;fill-opacity:1;fill-rule:nonzero;stroke:none"
         id="path194" />
    </g>
    <g
       id="g196"
       transform="translate(525.12,355.67999)">
      <path
         d="m 0,0 c 0,3.04 -2.56,5.6 -5.6,5.6 -3.2,0 -5.76,-2.56 -5.76,-5.6 0,-3.2 2.56,-5.76 5.76,-5.76 3.04,0 5.6,2.56 5.6,5.76 z"
         style="fill:#000000;fill-opacity:1;fill-rule:nonzero;stroke:none"
         id="path198" />
    </g>
    <g
       id="g200"
       transform="translate(500.64001,372.64001)">
      <path
         d="m 0,0 c 0,3.04 -2.56,5.6 -5.6,5.6 -3.2,0 -5.76,-2.56 -5.76,-5.6 0,-3.2 2.56,-5.76 5.76,-5.76 3.04,0 5.6,2.56 5.6,5.76 z"
         style="fill:#000000;fill-opacity:1;fill-rule:nonzero;stroke:none"
         id="path202" />
    </g>
    <g
       id="g204"
       transform="translate(525.12,372.64001)">
      <path
         d="m 0,0 c 0,3.04 -2.56,5.6 -5.6,5.6 -3.2,0 -5.76,-2.56 -5.76,-5.6 0,-3.2 2.56,-5.76 5.76,-5.76 3.04,0 5.6,2.56 5.6,5.76 z"
         style="fill:#000000;fill-opacity:1;fill-rule:nonzero;stroke:none"
         id="path206" />
    </g>
  </g>
</svg>
